<mxfile host="65bd71144e">
    <diagram id="0n0HNtQxdQgLzNsd5qJK" name="Page-1">
        <mxGraphModel dx="775" dy="473" grid="1" gridSize="10" guides="1" tooltips="1" connect="1" arrows="1" fold="1" page="1" pageScale="1" pageWidth="850" pageHeight="1100" math="0" shadow="0">
            <root>
                <mxCell id="0"/>
                <mxCell id="1" parent="0"/>
                <mxCell id="2" value="" style="rounded=0;whiteSpace=wrap;html=1;" parent="1" vertex="1">
                    <mxGeometry x="440" y="80" width="770" height="400" as="geometry"/>
                </mxCell>
                <mxCell id="52" value="" style="rounded=1;whiteSpace=wrap;html=1;absoluteArcSize=1;arcSize=14;strokeWidth=2;" parent="1" vertex="1">
                    <mxGeometry x="640" y="90" width="210" height="377.5" as="geometry"/>
                </mxCell>
                <mxCell id="3" value="NGINX" style="whiteSpace=wrap;html=1;aspect=fixed;" parent="1" vertex="1">
                    <mxGeometry x="460" y="222.5" width="80" height="80" as="geometry"/>
                </mxCell>
                <mxCell id="5" value="" style="endArrow=classic;html=1;startArrow=none;" parent="1" target="3" edge="1" source="55">
                    <mxGeometry width="50" height="50" relative="1" as="geometry">
                        <mxPoint x="370" y="263" as="sourcePoint"/>
                        <mxPoint x="790" y="260" as="targetPoint"/>
                    </mxGeometry>
                </mxCell>
                <mxCell id="6" value="appointment service" style="rounded=1;whiteSpace=wrap;html=1;" parent="1" vertex="1">
                    <mxGeometry x="950" y="120" width="120" height="60" as="geometry"/>
                </mxCell>
                <mxCell id="7" value="infrastructure service" style="rounded=1;whiteSpace=wrap;html=1;" parent="1" vertex="1">
                    <mxGeometry x="950" y="280" width="120" height="60" as="geometry"/>
                </mxCell>
                <mxCell id="8" value="inventory management&lt;br&gt;service" style="rounded=1;whiteSpace=wrap;html=1;" parent="1" vertex="1">
                    <mxGeometry x="950" y="200" width="120" height="60" as="geometry"/>
                </mxCell>
                <mxCell id="10" value="user authentication&lt;br&gt;service" style="rounded=1;whiteSpace=wrap;html=1;" parent="1" vertex="1">
                    <mxGeometry x="950" y="360" width="120" height="60" as="geometry"/>
                </mxCell>
                <mxCell id="13" value="" style="endArrow=classic;html=1;exitX=1;exitY=0.25;exitDx=0;exitDy=0;entryX=0;entryY=0.5;entryDx=0;entryDy=0;" parent="1" source="3" edge="1">
                    <mxGeometry width="50" height="50" relative="1" as="geometry">
                        <mxPoint x="740" y="310" as="sourcePoint"/>
                        <mxPoint x="680" y="200" as="targetPoint"/>
                    </mxGeometry>
                </mxCell>
                <mxCell id="14" value="" style="endArrow=classic;html=1;entryX=0;entryY=0.5;entryDx=0;entryDy=0;" parent="1" source="3" edge="1">
                    <mxGeometry width="50" height="50" relative="1" as="geometry">
                        <mxPoint x="740" y="310" as="sourcePoint"/>
                        <mxPoint x="680" y="350" as="targetPoint"/>
                    </mxGeometry>
                </mxCell>
                <mxCell id="15" value="Load Balanced&lt;br&gt;(round robin)" style="text;html=1;strokeColor=none;fillColor=none;align=center;verticalAlign=middle;whiteSpace=wrap;rounded=0;" parent="1" vertex="1">
                    <mxGeometry x="540" y="245" width="110" height="35" as="geometry"/>
                </mxCell>
                <mxCell id="21" value="" style="endArrow=classic;startArrow=classic;html=1;exitX=1;exitY=0.25;exitDx=0;exitDy=0;entryX=0;entryY=0.75;entryDx=0;entryDy=0;" parent="1" target="6" edge="1">
                    <mxGeometry width="50" height="50" relative="1" as="geometry">
                        <mxPoint x="800" y="335" as="sourcePoint"/>
                        <mxPoint x="790" y="230" as="targetPoint"/>
                    </mxGeometry>
                </mxCell>
                <mxCell id="22" value="" style="endArrow=classic;startArrow=classic;html=1;exitX=1;exitY=0.5;exitDx=0;exitDy=0;entryX=0;entryY=0.75;entryDx=0;entryDy=0;" parent="1" target="8" edge="1">
                    <mxGeometry width="50" height="50" relative="1" as="geometry">
                        <mxPoint x="800" y="350" as="sourcePoint"/>
                        <mxPoint x="960" y="175" as="targetPoint"/>
                    </mxGeometry>
                </mxCell>
                <mxCell id="23" value="" style="endArrow=classic;startArrow=classic;html=1;exitX=1;exitY=0.75;exitDx=0;exitDy=0;entryX=0;entryY=0.75;entryDx=0;entryDy=0;" parent="1" target="7" edge="1">
                    <mxGeometry width="50" height="50" relative="1" as="geometry">
                        <mxPoint x="800" y="365" as="sourcePoint"/>
                        <mxPoint x="960" y="255" as="targetPoint"/>
                    </mxGeometry>
                </mxCell>
                <mxCell id="24" value="" style="endArrow=classic;startArrow=classic;html=1;exitX=1;exitY=1;exitDx=0;exitDy=0;entryX=0;entryY=1;entryDx=0;entryDy=0;" parent="1" target="10" edge="1">
                    <mxGeometry width="50" height="50" relative="1" as="geometry">
                        <mxPoint x="800" y="380" as="sourcePoint"/>
                        <mxPoint x="960" y="335" as="targetPoint"/>
                    </mxGeometry>
                </mxCell>
                <mxCell id="25" value="" style="endArrow=classic;startArrow=classic;html=1;exitX=1;exitY=0.25;exitDx=0;exitDy=0;entryX=0;entryY=0.25;entryDx=0;entryDy=0;" parent="1" target="6" edge="1">
                    <mxGeometry width="50" height="50" relative="1" as="geometry">
                        <mxPoint x="800" y="185" as="sourcePoint"/>
                        <mxPoint x="960" y="175" as="targetPoint"/>
                    </mxGeometry>
                </mxCell>
                <mxCell id="26" value="" style="endArrow=classic;startArrow=classic;html=1;exitX=1;exitY=0.5;exitDx=0;exitDy=0;entryX=0;entryY=0.25;entryDx=0;entryDy=0;" parent="1" target="8" edge="1">
                    <mxGeometry width="50" height="50" relative="1" as="geometry">
                        <mxPoint x="800" y="200" as="sourcePoint"/>
                        <mxPoint x="960" y="145" as="targetPoint"/>
                    </mxGeometry>
                </mxCell>
                <mxCell id="27" value="" style="endArrow=classic;startArrow=classic;html=1;exitX=1;exitY=0.75;exitDx=0;exitDy=0;entryX=0;entryY=0.5;entryDx=0;entryDy=0;" parent="1" target="7" edge="1">
                    <mxGeometry width="50" height="50" relative="1" as="geometry">
                        <mxPoint x="800" y="215" as="sourcePoint"/>
                        <mxPoint x="960" y="225" as="targetPoint"/>
                    </mxGeometry>
                </mxCell>
                <mxCell id="28" value="" style="endArrow=classic;startArrow=classic;html=1;exitX=1;exitY=1;exitDx=0;exitDy=0;entryX=0;entryY=0.5;entryDx=0;entryDy=0;" parent="1" target="10" edge="1">
                    <mxGeometry width="50" height="50" relative="1" as="geometry">
                        <mxPoint x="800" y="230" as="sourcePoint"/>
                        <mxPoint x="960" y="320" as="targetPoint"/>
                    </mxGeometry>
                </mxCell>
                <mxCell id="30" value="" style="image;html=1;image=img/lib/clip_art/computers/Database_128x128.png" parent="1" vertex="1">
                    <mxGeometry x="1100" y="120" width="50" height="60" as="geometry"/>
                </mxCell>
                <mxCell id="31" value="" style="image;html=1;image=img/lib/clip_art/computers/Database_128x128.png" parent="1" vertex="1">
                    <mxGeometry x="1100" y="200" width="50" height="60" as="geometry"/>
                </mxCell>
                <mxCell id="32" value="" style="image;html=1;image=img/lib/clip_art/computers/Database_128x128.png" parent="1" vertex="1">
                    <mxGeometry x="1100" y="280" width="50" height="60" as="geometry"/>
                </mxCell>
                <mxCell id="33" value="" style="image;html=1;image=img/lib/clip_art/computers/Database_128x128.png" parent="1" vertex="1">
                    <mxGeometry x="1100" y="370" width="50" height="60" as="geometry"/>
                </mxCell>
                <mxCell id="35" value="" style="endArrow=classic;startArrow=classic;html=1;entryX=0;entryY=0.5;entryDx=0;entryDy=0;exitX=1;exitY=0.5;exitDx=0;exitDy=0;" parent="1" source="6" target="30" edge="1">
                    <mxGeometry width="50" height="50" relative="1" as="geometry">
                        <mxPoint x="740" y="280" as="sourcePoint"/>
                        <mxPoint x="790" y="230" as="targetPoint"/>
                    </mxGeometry>
                </mxCell>
                <mxCell id="36" value="" style="endArrow=classic;startArrow=classic;html=1;entryX=0;entryY=0.5;entryDx=0;entryDy=0;exitX=1;exitY=0.5;exitDx=0;exitDy=0;" parent="1" edge="1">
                    <mxGeometry width="50" height="50" relative="1" as="geometry">
                        <mxPoint x="1070" y="229.5" as="sourcePoint"/>
                        <mxPoint x="1100" y="229.5" as="targetPoint"/>
                    </mxGeometry>
                </mxCell>
                <mxCell id="37" value="" style="endArrow=classic;startArrow=classic;html=1;entryX=0;entryY=0.5;entryDx=0;entryDy=0;exitX=1;exitY=0.5;exitDx=0;exitDy=0;" parent="1" edge="1">
                    <mxGeometry width="50" height="50" relative="1" as="geometry">
                        <mxPoint x="1070" y="319" as="sourcePoint"/>
                        <mxPoint x="1100" y="319" as="targetPoint"/>
                    </mxGeometry>
                </mxCell>
                <mxCell id="38" value="" style="endArrow=classic;startArrow=classic;html=1;entryX=0;entryY=0.5;entryDx=0;entryDy=0;exitX=1;exitY=0.5;exitDx=0;exitDy=0;" parent="1" edge="1">
                    <mxGeometry width="50" height="50" relative="1" as="geometry">
                        <mxPoint x="1070" y="399.5" as="sourcePoint"/>
                        <mxPoint x="1100" y="399.5" as="targetPoint"/>
                    </mxGeometry>
                </mxCell>
                <mxCell id="40" value="" style="fontColor=#0066CC;verticalAlign=top;verticalLabelPosition=bottom;labelPosition=center;align=center;html=1;outlineConnect=0;fillColor=#CCCCCC;strokeColor=#6881B3;gradientColor=none;gradientDirection=north;strokeWidth=2;shape=mxgraph.networks.monitor;" parent="1" vertex="1">
                    <mxGeometry x="280" y="230" width="50" height="45" as="geometry"/>
                </mxCell>
                <mxCell id="43" value="" style="endArrow=none;html=1;exitX=0.77;exitY=1;exitDx=0;exitDy=0;exitPerimeter=0;" parent="1" edge="1">
                    <mxGeometry width="50" height="50" relative="1" as="geometry">
                        <mxPoint x="311.5999999999999" y="157.5" as="sourcePoint"/>
                        <mxPoint x="370" y="157" as="targetPoint"/>
                    </mxGeometry>
                </mxCell>
                <mxCell id="44" value="" style="endArrow=none;html=1;exitX=0.5;exitY=1;exitDx=0;exitDy=0;exitPerimeter=0;" parent="1" source="40" edge="1">
                    <mxGeometry width="50" height="50" relative="1" as="geometry">
                        <mxPoint x="220.00000000000003" y="262" as="sourcePoint"/>
                        <mxPoint x="368" y="275" as="targetPoint"/>
                    </mxGeometry>
                </mxCell>
                <mxCell id="45" value="" style="endArrow=none;html=1;" parent="1" edge="1">
                    <mxGeometry width="50" height="50" relative="1" as="geometry">
                        <mxPoint x="290" y="367" as="sourcePoint"/>
                        <mxPoint x="360" y="367" as="targetPoint"/>
                    </mxGeometry>
                </mxCell>
                <mxCell id="46" value="" style="endArrow=none;html=1;" parent="1" edge="1">
                    <mxGeometry width="50" height="50" relative="1" as="geometry">
                        <mxPoint x="310" y="467" as="sourcePoint"/>
                        <mxPoint x="358.4000000000001" y="467" as="targetPoint"/>
                    </mxGeometry>
                </mxCell>
                <mxCell id="47" value="" style="endArrow=none;html=1;" parent="1" edge="1">
                    <mxGeometry width="50" height="50" relative="1" as="geometry">
                        <mxPoint x="360" y="467" as="sourcePoint"/>
                        <mxPoint x="370" y="157" as="targetPoint"/>
                    </mxGeometry>
                </mxCell>
                <mxCell id="53" value="Can be easily scaled to n instances" style="text;html=1;strokeColor=none;fillColor=none;align=center;verticalAlign=middle;whiteSpace=wrap;rounded=0;" parent="1" vertex="1">
                    <mxGeometry x="650" y="90" width="180" height="30" as="geometry"/>
                </mxCell>
                <mxCell id="54" value="..." style="text;html=1;strokeColor=none;fillColor=none;align=center;verticalAlign=middle;whiteSpace=wrap;rounded=0;" parent="1" vertex="1">
                    <mxGeometry x="680" y="250" width="60" height="40" as="geometry"/>
                </mxCell>
                <mxCell id="55" value="" style="shape=image;verticalLabelPosition=bottom;verticalAlign=top;imageAspect=0;aspect=fixed;image=data:image/png,iVBORw0KGgoAAAANSUhEUgAAANMAAADvCAMAAABfYRE9AAAAgVBMVEUAlDj////+/v4AjicAkzUAjCDZ7eCy2b673MUln0+i0K8AkjIAjyoAjiUAkTAAkzcAixr4/Pp5vIzR6Ng/pV2azKju9/FOqmnL5dMvoFLk8ujF4s6p07X0+vd/v5FVrW+KxJqRx6BxuYVFp2IZmkQ4olhhsnhotH5UrG0AhgBesHU1LZx+AAAKm0lEQVR4nO2d61rqOhCGkzaRQ5JaEAoCRUCUtb3/C9ytolDJ+VCS9azvr9L0pZ1JZiZkAPz7BO59AwH0j8le1Xr40NNQPTFlO8xYuVj1Mlg/TANEQSOCp5M+huuB6ekNI/AlSsfhxwvPVJ1KAn70yEbL0CMGZ9qzAnSE8EtoswrLNAAU3IiUu7BmFZLpYfZjSF1RtAk4bECm6oQJl6h9AdnzU7CBwzHNcSEi+qQqP4KZVSCm4TGXEbUq2C7M2GGYhIb0y6zIIMToIZiqQyk0pF8vIH4LYVb+meaU479FIvhUeb8D30xDkD/qIzUq8N7zLXhmenjVMqSucjD0ehNemSZT8YwkE8Izr7GVR6aNiSF1RcqDR7PyxrR8Zuav3UVFPvd1J76Yqg+71+5K+dGXWXlhmuxK6UJITwi/+jErH0zciMJGTXBfe7gfd6anNydD6ooWHoJ7V6ZuaO4uxI7rOzPdhOYeqPAfxyjEiUkjorBRgbdOwb0Dk2ZEYSNKXYJ7a6b64DwjSYTYyN6sbJnmuSf/LaTC1qloO6bhkYUlakXKrd1sZcO0WgQzpK4osZqtzJlsIwobIatUtDHT2D6isKIqzVPRhkzrkceFkJ4KZjpbGTGt/vRkSF1RYjZbGTA1EUVvhtSVYSpan2lDejWkrgh+1w/udZme3EJzdxV4l3llWr2X9yVqRYFmKlqLaec/orARwjMts9JgGtzTkLoipU4qWsl0VTWPQQXbuzLJin13kjpnJmfa+8hx+RbCb/KcmYwpUGjuLkUqWsxkVaPoS1SWihYx1drFvvvoUVLhETAZFfvuoya4F5gVl2l9ZGbFvvuI4AM3CuEwrRYRLIT0RBkvuL9hqrfRzUgy8VLRv5nGRfSG1BUnFd1lWvYfmrvrJmd2zbR6iXhGkomiMZ9pspXveopZ3ZzZD9MmNUPq6jpndmbyWuy7jy77zL6Y9sYLIVTQnDGWU+L9u2gu3aiw2BAzmlyYxqXhpwkDL/vNcD3c7BZHTD1iIcrepvPxeH54xsbGQBcXpqPZTZFyMbzK4TzMn0tftkjJ/CeKWO1zU6eFV99MldljYp+7g7IftVhbL1kYhHdXV27WNCdsdgE2/GZ6MPoknl8DfQ9fHdznNpSvu5eGcGBW58oHVkx4eEP0Nfy6cH1U5dPtlzU0eofsmARI7fD1zM2q8IZzaTg3eVJWTHQnQmof1cmlIkr+8F+AmcE0Y8OEwK0tXUMdHKDwA5/J5C2yYcp5r8f1Dbzbb0tcCC4NF/oPyoapqBVMcGbrKIRfFxzoZ+QsmITf5eUGamTp0tlKxFTpv9AWTHSuYsrgynIxnAsvbbDMsWBqPqJiamYUw7n/S49EzDQKycSEk9P1LextoBqPGjFTBk8Wzi9ypszG+UXPVANjPxE7U+v8THPT0TNlcG0aOcfP1CynDZ1fAkwZPJjVGFNgyuCrkfNLg6k+muTXkmBqnJ9JjiwNJjPnlwhTBsf6zi8VpgxOtZ1fMkwGzi8hpkzX+aXDpO/8EmLSdn4pMWWahaCkmBrnp5P3SYspgwsN55ca00TD+SXGlMEqV95VakwZXCr9RIxMijz6RjVEhExQ8QThVuH8YmSaTxVQC3kiM0am8X/y0hScjKTOL0qmnFNh7vxHJd2ZEiUTRUUlh3qSOb84mQAZyb2f1PlFytRu95ExZXAndn6xMgGmcn4vQucXLRPAY/nbB4XOL14mgNeWzi9iJiQsn5//70kwVsRMAB3lWyjggO/RY2YCxauV84uaCeQnBdQHz/nFzdRuWpQywWdOLB85k2SP39f/8pxf7ExK58cZMHYmgJDK+d2MGD0TKGayvYut8/s9ZPxMgKqc3+/NiwkwAbxXOL+37sovBSZQqpxfd/NiEkyiPbs/n+iOmgYTAopYvrMdPg0mQJ4Vzu9682IiTIB+KJzf1ebFVJgAk/xqIPt0fj8rv2SYQCnfFAyrn82L6TDxfirT+djD9+bFhJgQ0XR+CTGpE5nnzYspMakTmQeaHBNgW4Xz+9y5nRYT//dnVx+dtM4vMSaAl3Ko9mcrqTEhpnB+6zI5JkCOE5XzS44JFErnx5JjUlVxIHwtkmMCpaKKM0nvOamrOOKoOF4mRBWJTPFfomVqvLXc+aXI1FZxrKBiZgL54e9jUlVxkmRSJTKTZHrM5c4vRabG+SlOAUiQCRRvxs4veiZlFSdFJlUVJ0kmY+eXAhMo5VWcJJkQksfyKTIpqzgpMimrOCkyqao4STIBrHG0S2pMAMurOEkyqbajp8ikrOKkyAQo/yC3pJlUVZwkmUCpOCbuzkxzq0PqFFWc87XvdF4Y3FqdUadKZH5dm2gfLGRzrpsw6W10QuOVyFHp/GAV9Py9QhSjwtr20EdVFae59jLo+XvoKGIyPMf1SsqVH5zqv9Y2Zz+KihO2r97nNRUl7NrglGqrc0dH3PEtzxE8S+7R4dbAo1qdD5vz3hT7Qyy/hPfiEFH+K8Sb27M7x/f27XM4bPT7ou8i72d2SJIlE2K/YwQo+UWdrihYcx8VfDI7mt3yDGnEBt2Dvqs3D4eXI/zycEMF4dzwENML08rssLxO75vJnPlpm1LgxblR0CdNq+Gz6QxxOb88o2anGhbl23hZ15NJtZ567D9EGPvYPNWT5oYm9WpwoOYnzV7OmVceGnA7PMVtVxvsu8dfc10GRqMjYjgvzFsbtT8T+WaCrxbLgEc3By4UamTXqYmC+ooplq6KLrp0g/rug1K9x91rTCWEZz+e69Kv5u5dSl3U6a52YYJwABJtWVPQ/RVGh6nt+pugWd00Ae0wNWb1klTnMcDtKvmLCcJlWmbFa6p7w5RUJ6ii5DU/5jDBLJGOXQR/cNt+8pjazmrxtyhsDEnQ9ZjP1JjVMXKzooWw6buIKXKzujQaM2KCk2msfh2VH7/7LGoytZ0/Y2xYiNhxKbtrOROE61F0HVopERqSHhOE47g66RK85faXNWKC9TSeRSDCC5khaTNB+BCJWT2y0W1jWUumtoO4SwcuT6KU1wDYmqnNtN3ZrIpyWqtv04gJ1od7zlbihtouTHdt+J4fhY3P3ZgaswL5PWYraYN6V6a273vvfp3gg64h2THB6tRvzgzhV31DsmRqzGrWo1l1clzhmCAcHM160ViryPcWt2fFBOG+j+D+JscVlglW76FnK06OKzBT25U7qFnxclzBmRqzIsGWS6RURxRBmIJVeBD+oxFRBGJqKzz+X0DNiCIUU2NWI885M8o0I4pwTBBukEezInjqYEjemOBk52u2MoooxPLA5CsV/Wi1EOLIC5OXCg+lZhGFWJ6YGrNym61IebBbCHHkjQlOtvY5s+uqubv8MbVmZblcMgvNlfLJZGlWBdt7vQnPTI1ZmaairSMKsXwzNWZlsvnNryGd5Z2prfBoz1YuEYVYAZggXOsVTot2c28ABWGCcKwunBL87tuQzgrE1FZ45D138LOgau6uUEyKVDRFIQzprHBMbYVHkDMr2Jaz/cSbQjJBuOcF96h8cQrNlQrLBKvT75wZcg7NlQrM1AT33VQ0LZxDc6WCM0E4uAT3RL/Y56AemCA8B/cIv4Y1pLN6YYKrE8asfPYaUYjVD1PjLNbDXp5Rq76Y+tQ/pjT0PxAJ6190xgFfAAAAAElFTkSuQmCC" vertex="1" parent="1">
                    <mxGeometry x="460" y="212.8" width="87.75" height="99.39" as="geometry"/>
                </mxCell>
                <mxCell id="56" value="" style="endArrow=none;html=1;" edge="1" parent="1" target="55">
                    <mxGeometry width="50" height="50" relative="1" as="geometry">
                        <mxPoint x="370" y="280" as="sourcePoint"/>
                        <mxPoint x="460" y="262.6538461538462" as="targetPoint"/>
                    </mxGeometry>
                </mxCell>
                <mxCell id="57" value="NGINX" style="text;html=1;strokeColor=none;fillColor=none;align=center;verticalAlign=middle;whiteSpace=wrap;rounded=0;" vertex="1" parent="1">
                    <mxGeometry x="470" y="180" width="60" height="30" as="geometry"/>
                </mxCell>
                <mxCell id="58" value="...." style="text;html=1;strokeColor=none;fillColor=none;align=center;verticalAlign=middle;whiteSpace=wrap;rounded=0;" vertex="1" parent="1">
                    <mxGeometry x="260" y="170" width="60" height="30" as="geometry"/>
                </mxCell>
                <mxCell id="59" value="" style="shape=image;verticalLabelPosition=bottom;verticalAlign=top;imageAspect=0;aspect=fixed;image=data:image/png,iVBORw0KGgoAAAANSUhEUgAAARIAAAC4CAMAAAAYGZMtAAAAjVBMVEUos/QBdrz29vYcr/GU2PUAc7nz/fv8+fZ3yvCX2PYarOv8+fgptvYWj9MjqesXk9UAeb8dnuAHfsMamNkRiMwGfcIgouMBdb0mre/4+/uu4vUurucPiMsMg8gZrert+/3P7fm15PKf3PXW8/tXv+xNuuy96fdCtOmEz+5jw+vj9/3F6/aD0PK55vJsxuphMeLRAAAIKUlEQVR4nO2dCXeiPBRAgRjtkLCJsijYzW52vvn/P+8Lm0ICWiFhKblz2jn1UAy3WV6SByqahEIZugDjQyphkEoYpBIGqYRBKmGQShikEgaphEEqYZBKGOqVoBVarVD+lYC6fVVO1fVnPkUhXwj9UAlC4ePT88ti8Wfxu3l5/j6FIauFVoLC15ejroNZoOtvi6fl6qoSFL4fiQ7l94PJPwLR8rZbomYl6OmoD13W/gFv72GTknBxmEMFYQD6w+OqTgk6HUFWm+YH+HhFrBJ0+phlFcn7lP03YpTM1UjB/lxPCiWPb/M2QtrOqaok/AyGLtPQgOOyrAR9z3DwpQE7VFKynHuzSdmfLkrQbvaVhIw7GCzQWcnybegSjYOsmihpTyKbTUrWmyjpcCOVpICvMFey/Bi6LGNBf8yVnA5DF2UsgCSsV2RQUgK8rFIlq53sSnLAZ1ZLVi9SSQ74mytZSCUFD7mSP1JJDpBKaMDDSiqhkEpoZMNhkEoYpBIGqYRBKmGQShhGo2Q8u66jUQJMiuFKMhIl2IUUgzkZixLFhWoFqUQqYZFKGKQSBqmEQSphkEoYpBIGqYRBKmGQShikEoY5KrmxIDJHJdfB81PiWjeI1buVYE/IWlxfSrb0ChGNercS7MBYRFH7UrKmL/kWN5UQIyrcCCjqdJV4ScWCBv+iTlZJYJODfBW63LuTySqJs97H5z8yTVWJc+6Pt7yLOlUl9uVAi3PTmaiSSmDHueTTVIK35SMtvkWdphKzXEl8m2/Rp6nEqiiBDteiTlIJjirxP+cYdpJKqLP5NteiTlPJ9o5j7+Z3KOHamYhRgikU3EIJc5ILtBLr8r4Kdej9CKollk1xrxFVpc9QXhuhBKfzYayY7iYmB27jyPVA+1QvUUqgX+V+JaTbLANLcxm8gWr5jDDCWDfsdCEqeT1ZktoaXsuyC1PSxsFVytM7aqGWjMIGsy4H4bpd2aepxKROv97WvB+M2pV9mkqY3rquYUKvXT87TSXMrg+NT//CHUxUiXJ7CINuy7JPVYlz8w3sts+nmaqSYu21kdaVZLpK9NoutcDvsOs1WSU3mk7rZjNlJfjqe3SYG09WCfaaBx247bJaME0lJAYzGt8BdtwVnaISjANLbXoDCCNzjIsD19t5FyU4WQOIq3O87KcsJ2NtBZmQ9lp4KindctVcrdsrMT3HcY1Ypea8vm1s4jjebAzLMXnk4PBUEl/JoOmO33DiZLGEXnXrBFclV6MnUcC2S0VNcFSCt7fL354m25x3LBS+Su5ecuYBaTc8PJQQoaRTR+JfO0WyhutXD4Xc0xr59iXZ5Ri1f83Nuu467U3dq7B2xCIn9pkGtFV431LMW4lPCo49yLR8uM6yy2iCmlm+D526wAZuak4MraDLFK8Ong0n+YP7yTYTZmap6Wq5adMZ0OnsjHGSpOQRJ9TVJ5vh2KukDCTfPNKpb7k64VlLSG2HqpO0bExdfbZYjkH16uE6izSrrQSqXnoKpxKDwGRJCNNaIcwGfrtjDF+BpxIXqsb572UVUWYSZacXmXxegmPDc/htu8WrZgzPB6uGkkddwebyamnikpy4OEVsnvuvAHcN5Au4BvTVzt+zovV6HUdu5U9oulGcvGqVIyxskkidHLyxvOKDJpJXFSd9NTKcoObEhhvg84YO0WN5pq6b3QM3oZkD9XF2ffjdEJSn+951p0hfruTeZAF/95xPUUpa19+aX2w+F73rR2i561mCt5IfqGhrq6ay0HesjFLJz+A0Png1Ad3YlNBZMmJR7Jr7errPArkqCYyesNLvTh3dpzxclQD11r1ZPKmvD3hcSpSIbdvC4L50VMBXye3Na074AtZJCvgqAT0ZIdhgGkqoTG6BcM6bL8M5LqmLFIQYEXCbYwHvUE3okvSFtcAnGPJWciuJjBMiPwGLtxLQIg/6boSNv9kl8J7j9FBNfP73BpfhP+0TXk2gIfZBqPyViA7XhDxnoIyAxYFbuYYdjQh5GkUZAUoCkbvl4o0IWUIS2MMSI8KfqCxCibiwvu3NE3chZqGxdvuXgxGBYfwFMUpqt387IzgeKRC0HG3yF5JvjIpH1Aq92Zw31NJI3NcWgrBNCyZNoKMRzo+fuIK4fRzAsY+FW56pAbcKLnBri1fyK+yxiihClWDsdEtbK4xEQX9VRBGWMJ7/H3Sf7xTJKf0heE8YO3V38I5ZSB/b5G6LoSfP9IRR/0L6yRwgNeVuKz75FavfPqSgl2QK7J3Tzn7sY+MoeSpb34hXkl0YcOKfWUluqLAjpy4dqyf6fFCyZ6zhVS9pPkDkmgP6UPrOQiJaXGPdkHKhriPLC4b/0K3+E7NIDQCm51iWsckxLNfxTHCuGwNLGexx2riUxTVsQ6EZyxPGR4RUwiCVMEglDFIJg1TCIJUwSCUMUgnDWclCKsmRtYRBKmE4K3mRSnLA30wJ+k8fuihjASxyJa9SSQ54zpRoj4ehizIW9FctUxJ+yc4k42OZK0E7qSQFfIa5Eu20H7ow40B/QoUS9FdWk2QJ+Ji0m1xJOuaMaV14EIL31VmJhj5lNVHAV6hdlGiPH0MXaGBIEzm8amUl6Hv24Zq+QxUlZCCeuZNsAC4r0cKXOTvB4GGp0Urm7SQ415GyEg2972c67gB9dzFSVqKh0z89lYLnFaSA4yvS6pWQxvN+1POa0v3JF9MAgI/dsmyEUkKkfD/sAZhJAyIXevh6rgphlWgofPxe/Hvb6wf9N3PQD/uPr8X7KUS0AUZJYkULw+UcCFkfDUpmjlTCIJUw/A/kQdp69rum0AAAAABJRU5ErkJggg==" vertex="1" parent="1">
                    <mxGeometry x="680" y="163.78" width="113.5" height="76.22" as="geometry"/>
                </mxCell>
                <mxCell id="60" value="" style="shape=image;verticalLabelPosition=bottom;verticalAlign=top;imageAspect=0;aspect=fixed;image=data:image/png,iVBORw0KGgoAAAANSUhEUgAAARIAAAC4CAMAAAAYGZMtAAAAjVBMVEUos/QBdrz29vYcr/GU2PUAc7nz/fv8+fZ3yvCX2PYarOv8+fgptvYWj9MjqesXk9UAeb8dnuAHfsMamNkRiMwGfcIgouMBdb0mre/4+/uu4vUurucPiMsMg8gZrert+/3P7fm15PKf3PXW8/tXv+xNuuy96fdCtOmEz+5jw+vj9/3F6/aD0PK55vJsxuphMeLRAAAIKUlEQVR4nO2dCXeiPBRAgRjtkLCJsijYzW52vvn/P+8Lm0ICWiFhKblz2jn1UAy3WV6SByqahEIZugDjQyphkEoYpBIGqYRBKmGQShikEgaphEEqYZBKGOqVoBVarVD+lYC6fVVO1fVnPkUhXwj9UAlC4ePT88ti8Wfxu3l5/j6FIauFVoLC15ejroNZoOtvi6fl6qoSFL4fiQ7l94PJPwLR8rZbomYl6OmoD13W/gFv72GTknBxmEMFYQD6w+OqTgk6HUFWm+YH+HhFrBJ0+phlFcn7lP03YpTM1UjB/lxPCiWPb/M2QtrOqaok/AyGLtPQgOOyrAR9z3DwpQE7VFKynHuzSdmfLkrQbvaVhIw7GCzQWcnybegSjYOsmihpTyKbTUrWmyjpcCOVpICvMFey/Bi6LGNBf8yVnA5DF2UsgCSsV2RQUgK8rFIlq53sSnLAZ1ZLVi9SSQ74mytZSCUFD7mSP1JJDpBKaMDDSiqhkEpoZMNhkEoYpBIGqYRBKmGQShhGo2Q8u66jUQJMiuFKMhIl2IUUgzkZixLFhWoFqUQqYZFKGKQSBqmEQSphkEoYpBIGqYRBKmGQShikEoY5KrmxIDJHJdfB81PiWjeI1buVYE/IWlxfSrb0ChGNercS7MBYRFH7UrKmL/kWN5UQIyrcCCjqdJV4ScWCBv+iTlZJYJODfBW63LuTySqJs97H5z8yTVWJc+6Pt7yLOlUl9uVAi3PTmaiSSmDHueTTVIK35SMtvkWdphKzXEl8m2/Rp6nEqiiBDteiTlIJjirxP+cYdpJKqLP5NteiTlPJ9o5j7+Z3KOHamYhRgikU3EIJc5ILtBLr8r4Kdej9CKollk1xrxFVpc9QXhuhBKfzYayY7iYmB27jyPVA+1QvUUqgX+V+JaTbLANLcxm8gWr5jDDCWDfsdCEqeT1ZktoaXsuyC1PSxsFVytM7aqGWjMIGsy4H4bpd2aepxKROv97WvB+M2pV9mkqY3rquYUKvXT87TSXMrg+NT//CHUxUiXJ7CINuy7JPVYlz8w3sts+nmaqSYu21kdaVZLpK9NoutcDvsOs1WSU3mk7rZjNlJfjqe3SYG09WCfaaBx247bJaME0lJAYzGt8BdtwVnaISjANLbXoDCCNzjIsD19t5FyU4WQOIq3O87KcsJ2NtBZmQ9lp4KindctVcrdsrMT3HcY1Ypea8vm1s4jjebAzLMXnk4PBUEl/JoOmO33DiZLGEXnXrBFclV6MnUcC2S0VNcFSCt7fL354m25x3LBS+Su5ecuYBaTc8PJQQoaRTR+JfO0WyhutXD4Xc0xr59iXZ5Ri1f83Nuu467U3dq7B2xCIn9pkGtFV431LMW4lPCo49yLR8uM6yy2iCmlm+D526wAZuak4MraDLFK8Ong0n+YP7yTYTZmap6Wq5adMZ0OnsjHGSpOQRJ9TVJ5vh2KukDCTfPNKpb7k64VlLSG2HqpO0bExdfbZYjkH16uE6izSrrQSqXnoKpxKDwGRJCNNaIcwGfrtjDF+BpxIXqsb572UVUWYSZacXmXxegmPDc/htu8WrZgzPB6uGkkddwebyamnikpy4OEVsnvuvAHcN5Au4BvTVzt+zovV6HUdu5U9oulGcvGqVIyxskkidHLyxvOKDJpJXFSd9NTKcoObEhhvg84YO0WN5pq6b3QM3oZkD9XF2ffjdEJSn+951p0hfruTeZAF/95xPUUpa19+aX2w+F73rR2i561mCt5IfqGhrq6ay0HesjFLJz+A0Png1Ad3YlNBZMmJR7Jr7errPArkqCYyesNLvTh3dpzxclQD11r1ZPKmvD3hcSpSIbdvC4L50VMBXye3Na074AtZJCvgqAT0ZIdhgGkqoTG6BcM6bL8M5LqmLFIQYEXCbYwHvUE3okvSFtcAnGPJWciuJjBMiPwGLtxLQIg/6boSNv9kl8J7j9FBNfP73BpfhP+0TXk2gIfZBqPyViA7XhDxnoIyAxYFbuYYdjQh5GkUZAUoCkbvl4o0IWUIS2MMSI8KfqCxCibiwvu3NE3chZqGxdvuXgxGBYfwFMUpqt387IzgeKRC0HG3yF5JvjIpH1Aq92Zw31NJI3NcWgrBNCyZNoKMRzo+fuIK4fRzAsY+FW56pAbcKLnBri1fyK+yxiihClWDsdEtbK4xEQX9VRBGWMJ7/H3Sf7xTJKf0heE8YO3V38I5ZSB/b5G6LoSfP9IRR/0L6yRwgNeVuKz75FavfPqSgl2QK7J3Tzn7sY+MoeSpb34hXkl0YcOKfWUluqLAjpy4dqyf6fFCyZ6zhVS9pPkDkmgP6UPrOQiJaXGPdkHKhriPLC4b/0K3+E7NIDQCm51iWsckxLNfxTHCuGwNLGexx2riUxTVsQ6EZyxPGR4RUwiCVMEglDFIJg1TCIJUwSCUMUgnDWclCKsmRtYRBKmE4K3mRSnLA30wJ+k8fuihjASxyJa9SSQ54zpRoj4ehizIW9FctUxJ+yc4k42OZK0E7qSQFfIa5Eu20H7ow40B/QoUS9FdWk2QJ+Ji0m1xJOuaMaV14EIL31VmJhj5lNVHAV6hdlGiPH0MXaGBIEzm8amUl6Hv24Zq+QxUlZCCeuZNsAC4r0cKXOTvB4GGp0Urm7SQ415GyEg2972c67gB9dzFSVqKh0z89lYLnFaSA4yvS6pWQxvN+1POa0v3JF9MAgI/dsmyEUkKkfD/sAZhJAyIXevh6rgphlWgofPxe/Hvb6wf9N3PQD/uPr8X7KUS0AUZJYkULw+UcCFkfDUpmjlTCIJUw/A/kQdp69rum0AAAAABJRU5ErkJggg==" vertex="1" parent="1">
                    <mxGeometry x="680" y="326.28" width="113.5" height="76.22" as="geometry"/>
                </mxCell>
                <mxCell id="61" value="Frontend server" style="text;html=1;strokeColor=none;fillColor=none;align=center;verticalAlign=middle;whiteSpace=wrap;rounded=0;" vertex="1" parent="1">
                    <mxGeometry x="680" y="130" width="110" height="40" as="geometry"/>
                </mxCell>
                <mxCell id="62" value="Frontend server" style="text;html=1;strokeColor=none;fillColor=none;align=center;verticalAlign=middle;whiteSpace=wrap;rounded=0;" vertex="1" parent="1">
                    <mxGeometry x="683.5" y="290" width="110" height="40" as="geometry"/>
                </mxCell>
                <mxCell id="63" value="" style="fontColor=#0066CC;verticalAlign=top;verticalLabelPosition=bottom;labelPosition=center;align=center;html=1;outlineConnect=0;fillColor=#CCCCCC;strokeColor=#6881B3;gradientColor=none;gradientDirection=north;strokeWidth=2;shape=mxgraph.networks.monitor;" vertex="1" parent="1">
                    <mxGeometry x="280" y="118.78" width="50" height="45" as="geometry"/>
                </mxCell>
                <mxCell id="64" value="" style="fontColor=#0066CC;verticalAlign=top;verticalLabelPosition=bottom;labelPosition=center;align=center;html=1;outlineConnect=0;fillColor=#CCCCCC;strokeColor=#6881B3;gradientColor=none;gradientDirection=north;strokeWidth=2;shape=mxgraph.networks.monitor;" vertex="1" parent="1">
                    <mxGeometry x="270" y="325" width="50" height="45" as="geometry"/>
                </mxCell>
                <mxCell id="65" value="" style="fontColor=#0066CC;verticalAlign=top;verticalLabelPosition=bottom;labelPosition=center;align=center;html=1;outlineConnect=0;fillColor=#CCCCCC;strokeColor=#6881B3;gradientColor=none;gradientDirection=north;strokeWidth=2;shape=mxgraph.networks.monitor;" vertex="1" parent="1">
                    <mxGeometry x="270" y="422.5" width="50" height="45" as="geometry"/>
                </mxCell>
                <mxCell id="66" value="" style="shape=image;verticalLabelPosition=bottom;verticalAlign=top;imageAspect=0;aspect=fixed;image=data:image/png,iVBORw0KGgoAAAANSUhEUgAAARIAAAC4CAMAAAAYGZMtAAAAjVBMVEUos/QBdrz29vYcr/GU2PUAc7nz/fv8+fZ3yvCX2PYarOv8+fgptvYWj9MjqesXk9UAeb8dnuAHfsMamNkRiMwGfcIgouMBdb0mre/4+/uu4vUurucPiMsMg8gZrert+/3P7fm15PKf3PXW8/tXv+xNuuy96fdCtOmEz+5jw+vj9/3F6/aD0PK55vJsxuphMeLRAAAIKUlEQVR4nO2dCXeiPBRAgRjtkLCJsijYzW52vvn/P+8Lm0ICWiFhKblz2jn1UAy3WV6SByqahEIZugDjQyphkEoYpBIGqYRBKmGQShikEgaphEEqYZBKGOqVoBVarVD+lYC6fVVO1fVnPkUhXwj9UAlC4ePT88ti8Wfxu3l5/j6FIauFVoLC15ejroNZoOtvi6fl6qoSFL4fiQ7l94PJPwLR8rZbomYl6OmoD13W/gFv72GTknBxmEMFYQD6w+OqTgk6HUFWm+YH+HhFrBJ0+phlFcn7lP03YpTM1UjB/lxPCiWPb/M2QtrOqaok/AyGLtPQgOOyrAR9z3DwpQE7VFKynHuzSdmfLkrQbvaVhIw7GCzQWcnybegSjYOsmihpTyKbTUrWmyjpcCOVpICvMFey/Bi6LGNBf8yVnA5DF2UsgCSsV2RQUgK8rFIlq53sSnLAZ1ZLVi9SSQ74mytZSCUFD7mSP1JJDpBKaMDDSiqhkEpoZMNhkEoYpBIGqYRBKmGQShhGo2Q8u66jUQJMiuFKMhIl2IUUgzkZixLFhWoFqUQqYZFKGKQSBqmEQSphkEoYpBIGqYRBKmGQShikEoY5KrmxIDJHJdfB81PiWjeI1buVYE/IWlxfSrb0ChGNercS7MBYRFH7UrKmL/kWN5UQIyrcCCjqdJV4ScWCBv+iTlZJYJODfBW63LuTySqJs97H5z8yTVWJc+6Pt7yLOlUl9uVAi3PTmaiSSmDHueTTVIK35SMtvkWdphKzXEl8m2/Rp6nEqiiBDteiTlIJjirxP+cYdpJKqLP5NteiTlPJ9o5j7+Z3KOHamYhRgikU3EIJc5ILtBLr8r4Kdej9CKollk1xrxFVpc9QXhuhBKfzYayY7iYmB27jyPVA+1QvUUqgX+V+JaTbLANLcxm8gWr5jDDCWDfsdCEqeT1ZktoaXsuyC1PSxsFVytM7aqGWjMIGsy4H4bpd2aepxKROv97WvB+M2pV9mkqY3rquYUKvXT87TSXMrg+NT//CHUxUiXJ7CINuy7JPVYlz8w3sts+nmaqSYu21kdaVZLpK9NoutcDvsOs1WSU3mk7rZjNlJfjqe3SYG09WCfaaBx247bJaME0lJAYzGt8BdtwVnaISjANLbXoDCCNzjIsD19t5FyU4WQOIq3O87KcsJ2NtBZmQ9lp4KindctVcrdsrMT3HcY1Ypea8vm1s4jjebAzLMXnk4PBUEl/JoOmO33DiZLGEXnXrBFclV6MnUcC2S0VNcFSCt7fL354m25x3LBS+Su5ecuYBaTc8PJQQoaRTR+JfO0WyhutXD4Xc0xr59iXZ5Ri1f83Nuu467U3dq7B2xCIn9pkGtFV431LMW4lPCo49yLR8uM6yy2iCmlm+D526wAZuak4MraDLFK8Ong0n+YP7yTYTZmap6Wq5adMZ0OnsjHGSpOQRJ9TVJ5vh2KukDCTfPNKpb7k64VlLSG2HqpO0bExdfbZYjkH16uE6izSrrQSqXnoKpxKDwGRJCNNaIcwGfrtjDF+BpxIXqsb572UVUWYSZacXmXxegmPDc/htu8WrZgzPB6uGkkddwebyamnikpy4OEVsnvuvAHcN5Au4BvTVzt+zovV6HUdu5U9oulGcvGqVIyxskkidHLyxvOKDJpJXFSd9NTKcoObEhhvg84YO0WN5pq6b3QM3oZkD9XF2ffjdEJSn+951p0hfruTeZAF/95xPUUpa19+aX2w+F73rR2i561mCt5IfqGhrq6ay0HesjFLJz+A0Png1Ad3YlNBZMmJR7Jr7errPArkqCYyesNLvTh3dpzxclQD11r1ZPKmvD3hcSpSIbdvC4L50VMBXye3Na074AtZJCvgqAT0ZIdhgGkqoTG6BcM6bL8M5LqmLFIQYEXCbYwHvUE3okvSFtcAnGPJWciuJjBMiPwGLtxLQIg/6boSNv9kl8J7j9FBNfP73BpfhP+0TXk2gIfZBqPyViA7XhDxnoIyAxYFbuYYdjQh5GkUZAUoCkbvl4o0IWUIS2MMSI8KfqCxCibiwvu3NE3chZqGxdvuXgxGBYfwFMUpqt387IzgeKRC0HG3yF5JvjIpH1Aq92Zw31NJI3NcWgrBNCyZNoKMRzo+fuIK4fRzAsY+FW56pAbcKLnBri1fyK+yxiihClWDsdEtbK4xEQX9VRBGWMJ7/H3Sf7xTJKf0heE8YO3V38I5ZSB/b5G6LoSfP9IRR/0L6yRwgNeVuKz75FavfPqSgl2QK7J3Tzn7sY+MoeSpb34hXkl0YcOKfWUluqLAjpy4dqyf6fFCyZ6zhVS9pPkDkmgP6UPrOQiJaXGPdkHKhriPLC4b/0K3+E7NIDQCm51iWsckxLNfxTHCuGwNLGexx2riUxTVsQ6EZyxPGR4RUwiCVMEglDFIJg1TCIJUwSCUMUgnDWclCKsmRtYRBKmE4K3mRSnLA30wJ+k8fuihjASxyJa9SSQ54zpRoj4ehizIW9FctUxJ+yc4k42OZK0E7qSQFfIa5Eu20H7ow40B/QoUS9FdWk2QJ+Ji0m1xJOuaMaV14EIL31VmJhj5lNVHAV6hdlGiPH0MXaGBIEzm8amUl6Hv24Zq+QxUlZCCeuZNsAC4r0cKXOTvB4GGp0Urm7SQ415GyEg2972c67gB9dzFSVqKh0z89lYLnFaSA4yvS6pWQxvN+1POa0v3JF9MAgI/dsmyEUkKkfD/sAZhJAyIXevh6rgphlWgofPxe/Hvb6wf9N3PQD/uPr8X7KUS0AUZJYkULw+UcCFkfDUpmjlTCIJUw/A/kQdp69rum0AAAAABJRU5ErkJggg==" vertex="1" parent="1">
                    <mxGeometry x="960" y="120" width="23.5" height="15.78" as="geometry"/>
                </mxCell>
                <mxCell id="67" value="" style="shape=image;verticalLabelPosition=bottom;verticalAlign=top;imageAspect=0;aspect=fixed;image=data:image/png,iVBORw0KGgoAAAANSUhEUgAAARIAAAC4CAMAAAAYGZMtAAAAjVBMVEUos/QBdrz29vYcr/GU2PUAc7nz/fv8+fZ3yvCX2PYarOv8+fgptvYWj9MjqesXk9UAeb8dnuAHfsMamNkRiMwGfcIgouMBdb0mre/4+/uu4vUurucPiMsMg8gZrert+/3P7fm15PKf3PXW8/tXv+xNuuy96fdCtOmEz+5jw+vj9/3F6/aD0PK55vJsxuphMeLRAAAIKUlEQVR4nO2dCXeiPBRAgRjtkLCJsijYzW52vvn/P+8Lm0ICWiFhKblz2jn1UAy3WV6SByqahEIZugDjQyphkEoYpBIGqYRBKmGQShikEgaphEEqYZBKGOqVoBVarVD+lYC6fVVO1fVnPkUhXwj9UAlC4ePT88ti8Wfxu3l5/j6FIauFVoLC15ejroNZoOtvi6fl6qoSFL4fiQ7l94PJPwLR8rZbomYl6OmoD13W/gFv72GTknBxmEMFYQD6w+OqTgk6HUFWm+YH+HhFrBJ0+phlFcn7lP03YpTM1UjB/lxPCiWPb/M2QtrOqaok/AyGLtPQgOOyrAR9z3DwpQE7VFKynHuzSdmfLkrQbvaVhIw7GCzQWcnybegSjYOsmihpTyKbTUrWmyjpcCOVpICvMFey/Bi6LGNBf8yVnA5DF2UsgCSsV2RQUgK8rFIlq53sSnLAZ1ZLVi9SSQ74mytZSCUFD7mSP1JJDpBKaMDDSiqhkEpoZMNhkEoYpBIGqYRBKmGQShhGo2Q8u66jUQJMiuFKMhIl2IUUgzkZixLFhWoFqUQqYZFKGKQSBqmEQSphkEoYpBIGqYRBKmGQShikEoY5KrmxIDJHJdfB81PiWjeI1buVYE/IWlxfSrb0ChGNercS7MBYRFH7UrKmL/kWN5UQIyrcCCjqdJV4ScWCBv+iTlZJYJODfBW63LuTySqJs97H5z8yTVWJc+6Pt7yLOlUl9uVAi3PTmaiSSmDHueTTVIK35SMtvkWdphKzXEl8m2/Rp6nEqiiBDteiTlIJjirxP+cYdpJKqLP5NteiTlPJ9o5j7+Z3KOHamYhRgikU3EIJc5ILtBLr8r4Kdej9CKollk1xrxFVpc9QXhuhBKfzYayY7iYmB27jyPVA+1QvUUqgX+V+JaTbLANLcxm8gWr5jDDCWDfsdCEqeT1ZktoaXsuyC1PSxsFVytM7aqGWjMIGsy4H4bpd2aepxKROv97WvB+M2pV9mkqY3rquYUKvXT87TSXMrg+NT//CHUxUiXJ7CINuy7JPVYlz8w3sts+nmaqSYu21kdaVZLpK9NoutcDvsOs1WSU3mk7rZjNlJfjqe3SYG09WCfaaBx247bJaME0lJAYzGt8BdtwVnaISjANLbXoDCCNzjIsD19t5FyU4WQOIq3O87KcsJ2NtBZmQ9lp4KindctVcrdsrMT3HcY1Ypea8vm1s4jjebAzLMXnk4PBUEl/JoOmO33DiZLGEXnXrBFclV6MnUcC2S0VNcFSCt7fL354m25x3LBS+Su5ecuYBaTc8PJQQoaRTR+JfO0WyhutXD4Xc0xr59iXZ5Ri1f83Nuu467U3dq7B2xCIn9pkGtFV431LMW4lPCo49yLR8uM6yy2iCmlm+D526wAZuak4MraDLFK8Ong0n+YP7yTYTZmap6Wq5adMZ0OnsjHGSpOQRJ9TVJ5vh2KukDCTfPNKpb7k64VlLSG2HqpO0bExdfbZYjkH16uE6izSrrQSqXnoKpxKDwGRJCNNaIcwGfrtjDF+BpxIXqsb572UVUWYSZacXmXxegmPDc/htu8WrZgzPB6uGkkddwebyamnikpy4OEVsnvuvAHcN5Au4BvTVzt+zovV6HUdu5U9oulGcvGqVIyxskkidHLyxvOKDJpJXFSd9NTKcoObEhhvg84YO0WN5pq6b3QM3oZkD9XF2ffjdEJSn+951p0hfruTeZAF/95xPUUpa19+aX2w+F73rR2i561mCt5IfqGhrq6ay0HesjFLJz+A0Png1Ad3YlNBZMmJR7Jr7errPArkqCYyesNLvTh3dpzxclQD11r1ZPKmvD3hcSpSIbdvC4L50VMBXye3Na074AtZJCvgqAT0ZIdhgGkqoTG6BcM6bL8M5LqmLFIQYEXCbYwHvUE3okvSFtcAnGPJWciuJjBMiPwGLtxLQIg/6boSNv9kl8J7j9FBNfP73BpfhP+0TXk2gIfZBqPyViA7XhDxnoIyAxYFbuYYdjQh5GkUZAUoCkbvl4o0IWUIS2MMSI8KfqCxCibiwvu3NE3chZqGxdvuXgxGBYfwFMUpqt387IzgeKRC0HG3yF5JvjIpH1Aq92Zw31NJI3NcWgrBNCyZNoKMRzo+fuIK4fRzAsY+FW56pAbcKLnBri1fyK+yxiihClWDsdEtbK4xEQX9VRBGWMJ7/H3Sf7xTJKf0heE8YO3V38I5ZSB/b5G6LoSfP9IRR/0L6yRwgNeVuKz75FavfPqSgl2QK7J3Tzn7sY+MoeSpb34hXkl0YcOKfWUluqLAjpy4dqyf6fFCyZ6zhVS9pPkDkmgP6UPrOQiJaXGPdkHKhriPLC4b/0K3+E7NIDQCm51iWsckxLNfxTHCuGwNLGexx2riUxTVsQ6EZyxPGR4RUwiCVMEglDFIJg1TCIJUwSCUMUgnDWclCKsmRtYRBKmE4K3mRSnLA30wJ+k8fuihjASxyJa9SSQ54zpRoj4ehizIW9FctUxJ+yc4k42OZK0E7qSQFfIa5Eu20H7ow40B/QoUS9FdWk2QJ+Ji0m1xJOuaMaV14EIL31VmJhj5lNVHAV6hdlGiPH0MXaGBIEzm8amUl6Hv24Zq+QxUlZCCeuZNsAC4r0cKXOTvB4GGp0Urm7SQ415GyEg2972c67gB9dzFSVqKh0z89lYLnFaSA4yvS6pWQxvN+1POa0v3JF9MAgI/dsmyEUkKkfD/sAZhJAyIXevh6rgphlWgofPxe/Hvb6wf9N3PQD/uPr8X7KUS0AUZJYkULw+UcCFkfDUpmjlTCIJUw/A/kQdp69rum0AAAAABJRU5ErkJggg==" vertex="1" parent="1">
                    <mxGeometry x="960" y="200" width="23.5" height="15.78" as="geometry"/>
                </mxCell>
                <mxCell id="68" value="" style="shape=image;verticalLabelPosition=bottom;verticalAlign=top;imageAspect=0;aspect=fixed;image=data:image/png,iVBORw0KGgoAAAANSUhEUgAAARIAAAC4CAMAAAAYGZMtAAAAjVBMVEUos/QBdrz29vYcr/GU2PUAc7nz/fv8+fZ3yvCX2PYarOv8+fgptvYWj9MjqesXk9UAeb8dnuAHfsMamNkRiMwGfcIgouMBdb0mre/4+/uu4vUurucPiMsMg8gZrert+/3P7fm15PKf3PXW8/tXv+xNuuy96fdCtOmEz+5jw+vj9/3F6/aD0PK55vJsxuphMeLRAAAIKUlEQVR4nO2dCXeiPBRAgRjtkLCJsijYzW52vvn/P+8Lm0ICWiFhKblz2jn1UAy3WV6SByqahEIZugDjQyphkEoYpBIGqYRBKmGQShikEgaphEEqYZBKGOqVoBVarVD+lYC6fVVO1fVnPkUhXwj9UAlC4ePT88ti8Wfxu3l5/j6FIauFVoLC15ejroNZoOtvi6fl6qoSFL4fiQ7l94PJPwLR8rZbomYl6OmoD13W/gFv72GTknBxmEMFYQD6w+OqTgk6HUFWm+YH+HhFrBJ0+phlFcn7lP03YpTM1UjB/lxPCiWPb/M2QtrOqaok/AyGLtPQgOOyrAR9z3DwpQE7VFKynHuzSdmfLkrQbvaVhIw7GCzQWcnybegSjYOsmihpTyKbTUrWmyjpcCOVpICvMFey/Bi6LGNBf8yVnA5DF2UsgCSsV2RQUgK8rFIlq53sSnLAZ1ZLVi9SSQ74mytZSCUFD7mSP1JJDpBKaMDDSiqhkEpoZMNhkEoYpBIGqYRBKmGQShhGo2Q8u66jUQJMiuFKMhIl2IUUgzkZixLFhWoFqUQqYZFKGKQSBqmEQSphkEoYpBIGqYRBKmGQShikEoY5KrmxIDJHJdfB81PiWjeI1buVYE/IWlxfSrb0ChGNercS7MBYRFH7UrKmL/kWN5UQIyrcCCjqdJV4ScWCBv+iTlZJYJODfBW63LuTySqJs97H5z8yTVWJc+6Pt7yLOlUl9uVAi3PTmaiSSmDHueTTVIK35SMtvkWdphKzXEl8m2/Rp6nEqiiBDteiTlIJjirxP+cYdpJKqLP5NteiTlPJ9o5j7+Z3KOHamYhRgikU3EIJc5ILtBLr8r4Kdej9CKollk1xrxFVpc9QXhuhBKfzYayY7iYmB27jyPVA+1QvUUqgX+V+JaTbLANLcxm8gWr5jDDCWDfsdCEqeT1ZktoaXsuyC1PSxsFVytM7aqGWjMIGsy4H4bpd2aepxKROv97WvB+M2pV9mkqY3rquYUKvXT87TSXMrg+NT//CHUxUiXJ7CINuy7JPVYlz8w3sts+nmaqSYu21kdaVZLpK9NoutcDvsOs1WSU3mk7rZjNlJfjqe3SYG09WCfaaBx247bJaME0lJAYzGt8BdtwVnaISjANLbXoDCCNzjIsD19t5FyU4WQOIq3O87KcsJ2NtBZmQ9lp4KindctVcrdsrMT3HcY1Ypea8vm1s4jjebAzLMXnk4PBUEl/JoOmO33DiZLGEXnXrBFclV6MnUcC2S0VNcFSCt7fL354m25x3LBS+Su5ecuYBaTc8PJQQoaRTR+JfO0WyhutXD4Xc0xr59iXZ5Ri1f83Nuu467U3dq7B2xCIn9pkGtFV431LMW4lPCo49yLR8uM6yy2iCmlm+D526wAZuak4MraDLFK8Ong0n+YP7yTYTZmap6Wq5adMZ0OnsjHGSpOQRJ9TVJ5vh2KukDCTfPNKpb7k64VlLSG2HqpO0bExdfbZYjkH16uE6izSrrQSqXnoKpxKDwGRJCNNaIcwGfrtjDF+BpxIXqsb572UVUWYSZacXmXxegmPDc/htu8WrZgzPB6uGkkddwebyamnikpy4OEVsnvuvAHcN5Au4BvTVzt+zovV6HUdu5U9oulGcvGqVIyxskkidHLyxvOKDJpJXFSd9NTKcoObEhhvg84YO0WN5pq6b3QM3oZkD9XF2ffjdEJSn+951p0hfruTeZAF/95xPUUpa19+aX2w+F73rR2i561mCt5IfqGhrq6ay0HesjFLJz+A0Png1Ad3YlNBZMmJR7Jr7errPArkqCYyesNLvTh3dpzxclQD11r1ZPKmvD3hcSpSIbdvC4L50VMBXye3Na074AtZJCvgqAT0ZIdhgGkqoTG6BcM6bL8M5LqmLFIQYEXCbYwHvUE3okvSFtcAnGPJWciuJjBMiPwGLtxLQIg/6boSNv9kl8J7j9FBNfP73BpfhP+0TXk2gIfZBqPyViA7XhDxnoIyAxYFbuYYdjQh5GkUZAUoCkbvl4o0IWUIS2MMSI8KfqCxCibiwvu3NE3chZqGxdvuXgxGBYfwFMUpqt387IzgeKRC0HG3yF5JvjIpH1Aq92Zw31NJI3NcWgrBNCyZNoKMRzo+fuIK4fRzAsY+FW56pAbcKLnBri1fyK+yxiihClWDsdEtbK4xEQX9VRBGWMJ7/H3Sf7xTJKf0heE8YO3V38I5ZSB/b5G6LoSfP9IRR/0L6yRwgNeVuKz75FavfPqSgl2QK7J3Tzn7sY+MoeSpb34hXkl0YcOKfWUluqLAjpy4dqyf6fFCyZ6zhVS9pPkDkmgP6UPrOQiJaXGPdkHKhriPLC4b/0K3+E7NIDQCm51iWsckxLNfxTHCuGwNLGexx2riUxTVsQ6EZyxPGR4RUwiCVMEglDFIJg1TCIJUwSCUMUgnDWclCKsmRtYRBKmE4K3mRSnLA30wJ+k8fuihjASxyJa9SSQ54zpRoj4ehizIW9FctUxJ+yc4k42OZK0E7qSQFfIa5Eu20H7ow40B/QoUS9FdWk2QJ+Ji0m1xJOuaMaV14EIL31VmJhj5lNVHAV6hdlGiPH0MXaGBIEzm8amUl6Hv24Zq+QxUlZCCeuZNsAC4r0cKXOTvB4GGp0Urm7SQ415GyEg2972c67gB9dzFSVqKh0z89lYLnFaSA4yvS6pWQxvN+1POa0v3JF9MAgI/dsmyEUkKkfD/sAZhJAyIXevh6rgphlWgofPxe/Hvb6wf9N3PQD/uPr8X7KUS0AUZJYkULw+UcCFkfDUpmjlTCIJUw/A/kQdp69rum0AAAAABJRU5ErkJggg==" vertex="1" parent="1">
                    <mxGeometry x="960" y="280" width="23.5" height="15.78" as="geometry"/>
                </mxCell>
                <mxCell id="69" value="" style="shape=image;verticalLabelPosition=bottom;verticalAlign=top;imageAspect=0;aspect=fixed;image=data:image/png,iVBORw0KGgoAAAANSUhEUgAAARIAAAC4CAMAAAAYGZMtAAAAjVBMVEUos/QBdrz29vYcr/GU2PUAc7nz/fv8+fZ3yvCX2PYarOv8+fgptvYWj9MjqesXk9UAeb8dnuAHfsMamNkRiMwGfcIgouMBdb0mre/4+/uu4vUurucPiMsMg8gZrert+/3P7fm15PKf3PXW8/tXv+xNuuy96fdCtOmEz+5jw+vj9/3F6/aD0PK55vJsxuphMeLRAAAIKUlEQVR4nO2dCXeiPBRAgRjtkLCJsijYzW52vvn/P+8Lm0ICWiFhKblz2jn1UAy3WV6SByqahEIZugDjQyphkEoYpBIGqYRBKmGQShikEgaphEEqYZBKGOqVoBVarVD+lYC6fVVO1fVnPkUhXwj9UAlC4ePT88ti8Wfxu3l5/j6FIauFVoLC15ejroNZoOtvi6fl6qoSFL4fiQ7l94PJPwLR8rZbomYl6OmoD13W/gFv72GTknBxmEMFYQD6w+OqTgk6HUFWm+YH+HhFrBJ0+phlFcn7lP03YpTM1UjB/lxPCiWPb/M2QtrOqaok/AyGLtPQgOOyrAR9z3DwpQE7VFKynHuzSdmfLkrQbvaVhIw7GCzQWcnybegSjYOsmihpTyKbTUrWmyjpcCOVpICvMFey/Bi6LGNBf8yVnA5DF2UsgCSsV2RQUgK8rFIlq53sSnLAZ1ZLVi9SSQ74mytZSCUFD7mSP1JJDpBKaMDDSiqhkEpoZMNhkEoYpBIGqYRBKmGQShhGo2Q8u66jUQJMiuFKMhIl2IUUgzkZixLFhWoFqUQqYZFKGKQSBqmEQSphkEoYpBIGqYRBKmGQShikEoY5KrmxIDJHJdfB81PiWjeI1buVYE/IWlxfSrb0ChGNercS7MBYRFH7UrKmL/kWN5UQIyrcCCjqdJV4ScWCBv+iTlZJYJODfBW63LuTySqJs97H5z8yTVWJc+6Pt7yLOlUl9uVAi3PTmaiSSmDHueTTVIK35SMtvkWdphKzXEl8m2/Rp6nEqiiBDteiTlIJjirxP+cYdpJKqLP5NteiTlPJ9o5j7+Z3KOHamYhRgikU3EIJc5ILtBLr8r4Kdej9CKollk1xrxFVpc9QXhuhBKfzYayY7iYmB27jyPVA+1QvUUqgX+V+JaTbLANLcxm8gWr5jDDCWDfsdCEqeT1ZktoaXsuyC1PSxsFVytM7aqGWjMIGsy4H4bpd2aepxKROv97WvB+M2pV9mkqY3rquYUKvXT87TSXMrg+NT//CHUxUiXJ7CINuy7JPVYlz8w3sts+nmaqSYu21kdaVZLpK9NoutcDvsOs1WSU3mk7rZjNlJfjqe3SYG09WCfaaBx247bJaME0lJAYzGt8BdtwVnaISjANLbXoDCCNzjIsD19t5FyU4WQOIq3O87KcsJ2NtBZmQ9lp4KindctVcrdsrMT3HcY1Ypea8vm1s4jjebAzLMXnk4PBUEl/JoOmO33DiZLGEXnXrBFclV6MnUcC2S0VNcFSCt7fL354m25x3LBS+Su5ecuYBaTc8PJQQoaRTR+JfO0WyhutXD4Xc0xr59iXZ5Ri1f83Nuu467U3dq7B2xCIn9pkGtFV431LMW4lPCo49yLR8uM6yy2iCmlm+D526wAZuak4MraDLFK8Ong0n+YP7yTYTZmap6Wq5adMZ0OnsjHGSpOQRJ9TVJ5vh2KukDCTfPNKpb7k64VlLSG2HqpO0bExdfbZYjkH16uE6izSrrQSqXnoKpxKDwGRJCNNaIcwGfrtjDF+BpxIXqsb572UVUWYSZacXmXxegmPDc/htu8WrZgzPB6uGkkddwebyamnikpy4OEVsnvuvAHcN5Au4BvTVzt+zovV6HUdu5U9oulGcvGqVIyxskkidHLyxvOKDJpJXFSd9NTKcoObEhhvg84YO0WN5pq6b3QM3oZkD9XF2ffjdEJSn+951p0hfruTeZAF/95xPUUpa19+aX2w+F73rR2i561mCt5IfqGhrq6ay0HesjFLJz+A0Png1Ad3YlNBZMmJR7Jr7errPArkqCYyesNLvTh3dpzxclQD11r1ZPKmvD3hcSpSIbdvC4L50VMBXye3Na074AtZJCvgqAT0ZIdhgGkqoTG6BcM6bL8M5LqmLFIQYEXCbYwHvUE3okvSFtcAnGPJWciuJjBMiPwGLtxLQIg/6boSNv9kl8J7j9FBNfP73BpfhP+0TXk2gIfZBqPyViA7XhDxnoIyAxYFbuYYdjQh5GkUZAUoCkbvl4o0IWUIS2MMSI8KfqCxCibiwvu3NE3chZqGxdvuXgxGBYfwFMUpqt387IzgeKRC0HG3yF5JvjIpH1Aq92Zw31NJI3NcWgrBNCyZNoKMRzo+fuIK4fRzAsY+FW56pAbcKLnBri1fyK+yxiihClWDsdEtbK4xEQX9VRBGWMJ7/H3Sf7xTJKf0heE8YO3V38I5ZSB/b5G6LoSfP9IRR/0L6yRwgNeVuKz75FavfPqSgl2QK7J3Tzn7sY+MoeSpb34hXkl0YcOKfWUluqLAjpy4dqyf6fFCyZ6zhVS9pPkDkmgP6UPrOQiJaXGPdkHKhriPLC4b/0K3+E7NIDQCm51iWsckxLNfxTHCuGwNLGexx2riUxTVsQ6EZyxPGR4RUwiCVMEglDFIJg1TCIJUwSCUMUgnDWclCKsmRtYRBKmE4K3mRSnLA30wJ+k8fuihjASxyJa9SSQ54zpRoj4ehizIW9FctUxJ+yc4k42OZK0E7qSQFfIa5Eu20H7ow40B/QoUS9FdWk2QJ+Ji0m1xJOuaMaV14EIL31VmJhj5lNVHAV6hdlGiPH0MXaGBIEzm8amUl6Hv24Zq+QxUlZCCeuZNsAC4r0cKXOTvB4GGp0Urm7SQ415GyEg2972c67gB9dzFSVqKh0z89lYLnFaSA4yvS6pWQxvN+1POa0v3JF9MAgI/dsmyEUkKkfD/sAZhJAyIXevh6rgphlWgofPxe/Hvb6wf9N3PQD/uPr8X7KUS0AUZJYkULw+UcCFkfDUpmjlTCIJUw/A/kQdp69rum0AAAAABJRU5ErkJggg==" vertex="1" parent="1">
                    <mxGeometry x="960" y="360" width="23.5" height="15.78" as="geometry"/>
                </mxCell>
                <mxCell id="70" value="" style="shape=image;verticalLabelPosition=bottom;labelBackgroundColor=#ffffff;verticalAlign=top;aspect=fixed;imageAspect=0;image=data:image/png,iVBORw0KGgoAAAANSUhEUgAAAOEAAADhCAMAAAAJbSJIAAABIFBMVEX////8yj91dXX/wkr2ggz0vWJxcXFubm72gAj/zD1ra2v8yTxvb2/9zD//xUz8yDj/wUT1wmX5+flwcnb/vzv//O72hxb81lf8z06Pj4//vz5rb3hxc3by8vJ/f3/zuFP3jBzX19fl5eWtra29vb3Nzc3/1Yr0u1z/7c//3qf/++ugoKC0tLScnJz/+/P/8dr/5rz/z3j/yWX/6cP2y4f65cf94IP6niv944/92m39tD7+uUL4lSKrlmN8eXKgj2fOrFXwwkWHh4fzsiH10p//2Zn/x1v1xXb52qv+77f/0Hv+9M71rU7/25z911/1pEL7pTH+773+5pz94YeIgG+QhW3atE+ikGbkuku9oVz6nSbEplnwtUrvrS2Zg2PxvGsrqss4AAAKlElEQVR4nO2dfVfbNhjFcRLs2I6TFEK7BBIKJIXykjAK7VbWF0hb2Eu3bmu7rR3j+3+LyXYSW9IjxbKRZTi6/7Sn0KDfufLVo0ciWVjQ0tLS0tLS0tLS0tLS0tLS0tLS0tLS0tLS0iqKDt8+Hqoeg0wNy61Op7WjehgSddQsI3VUD0OeVlrlgPCx6oFI005IWO7c2UfxsjMhfKt6JLL0qBkSllt31cSjKWHzkeqhSFJ5ptau6rFI0bA1I2x+q3owUjRqxUwcqR6NDB12IsLmkerRyND7GGH5TtZu3zZjhOV3qocjQWVMrSeqx3PjikVpoLrqAd24dgnC1qHqEd20nhCE5abqEd20HncIwju3i3rUJAjvXAF+RALeuV0UZeFdM5FcLIKsuVO7qB2AEN5FnRzezrL8kIzSwER6FzVaX99ev1AwwMx6CzyHwC5quL6ItH2sZIzZdAQSUruot9s+4eL6LZyoEF+Z2kWFFiITb988HUKPoS98F3UcWohMPFE00NQaQVEamBjfRe1OLPSlbKgp9YTlIbaLmll4C02k6u7IxGgXNYpZeOtM/AmM0kDRLupiOwa4fcuaAO+YgNEuCrdwcXveaw4LVdaygiZAnIwUsxAR8psAK0897+lKDkNPJrKFgROGu6gd3MI5Ju4+aLhu40FhbATr7ihsgnFeL5KEl+wXRIAGUuPHvAjmiR2lQdb4u6gT0kK0YjAdmgAajac5QnBFtzBwE9EuiuJDJr5hvNwU0HB/zRWDI7jujkz8aeEJbSHTxBmg4Xo5gzDF5fNNHAF8LBNXZoCGYRfkJBJqYWCqPwcJQRPjgEbj5/xpIDHr7pmqv8Am0lthDLAwYQq2MOIWPqvevwebSM5CHNBo/KkEiNL7OYTlaiWhiQRgYcKUU3cHFn5BhPcZTyLWzyABCxOmdb6Dp9VKpVL9DTYx3s+gAAsTpvygqf8QEFbmmggAFiRMuXX3xMIEJkKABQlT6ugQsNAXw8RJOw4ENBrfqWULxa+7T6eADBMXr4MXgQGNxveK4QJx6+76wylhpcow0W9KMQALEqb00WFMz2eAyER42b9mA6IwLcI+n/sURhZyTBwyAQsRpry6ux6zEBE+g0289ysTsBBhymth1O/HCSvVbRCQ7SAi/EM1H7fuxi1EhD8AJt574LIBCxGm8NHhxMIKLsBEPqDhfqOaj7yyhwF+qJKElIlzAAsRphwLK5Sq64KARQhTZtDQFiLCh/fEAI3G76oBOS0M2sIKvhVOAFiAMGUeHUIW4iYmASxAmLLrbggwbmIiwAKEKauFUX/GIJw2pZIBojBVfTzDrLthwJmJSQGNhuqrKSwLvzAJAxMTAyoP0xVGlJ6yAMOtcHJA5WHKqLuj3gVkogig8iO2SzhKORb6JgoAGu4DtYRw3c2zEC2JIoCG4akNU/jo8PkNAqoOU9jCh5ynUBRQce0NtzA4FooDKg5TsO7mWIgABflUhynUwiB7F9kcVB2mUN1N9S6yAaLKVCUhUHezLUwJaDRUHrEBV/aYFqYFVBumdNDAG98sgEq7wsDRIdB+ygio9L4CXXezLEyzTMwIFd5XAKL0xh1Ue8RGHR0yLMzioKH0vgLdwmABpnfQUBqmlIVg+ymjgyrDlK67YcBvMjmo8r4CWXeDFmadoobKy19k3Q31LpCDGflUhinRwoB6F9mnqC9lYUocHQIWpnXQtX254R+2rSxM6/MsTOWgh5D+/vriv48vS2ullx8/vXrx+kxVmLbmWFi9L+6gbZ+9flVaXV5eWyv5WltbW15dLe1tqADEo5TuXSBAUQdt+/Or1dWQDZPpmHubuRPiV/aoja+4g7b9+iWEN4U8z9tIrO6mLBR20PP5WHih8mbE6m7SQmFA++wT27+Isd3NkTDewiBuP4lPUfvr8nw+f65ag/wIYxZSt58EAV37rzkTNGbjQV6A8bqbvMAmCGiffVxOClgq1c6X8iGMtTCIja84YCnRDJ3N1FI+D2Os7sY7iOKAa0KAPmMuiFHdjVsoDpgsY3DlgRiru7M46BkvUwCapRwI4adQfJn4JBAyMcS2dMBYlGYCfJF4mcDl7MsmnNXd8d6FOODfKQERouxKPLqylwHQsNM8hBP1JBNO6+6YhQjQEwT8h2eh07NMzpctyfN0enR4Wk3voGdwUsbpDRa6ew6H0ZFb20zq7qh3Ie4gihkmoVUKK2weY21LKiFpYYqWhWew5qhV6s9+UHeLyWjJXPcnR4czC1P1ZP6BLYzzcRlrMp/ESd19mgHQ8GA+q0/9NBajKZEwvLI3tTAVoP0ZmKSWSfP5WtqyavR3OxK7GmEL43k1bcj4hH9Rk7Rm7TPzEflIMZp78giDK3uT9lM6QMOmJx2bz9fSFj1V5RG2IgvTAtIFm4X/jH6pTVRmFKG80i2ou0MLUwL6vScu4QBlqulgjEsUIZBKNyS/7g7bT2kBDfsVVZLGCAclJ5y4cUaaUN6D6LcwgvZTakBUdFMP1Yxw0HMiiIiRJpRXfr/vhBamBzSAgsYi+EyCESCUVpuiuttvP2UA9M4YhBGfcxD9NWCECGUVbu+C3kUWB6H1HhFuxPg2MVz/zAIglBWmHf8CWxZAuKLZOMf4fE0jx/dxg/4fsqqa3RayMBOgYb+GajZsUk4U+WgB/0PSMQaqu7M5yCAE+DDG/AgfNz9kBGQS0nxcRlmEj5rVSjZA+Dn0D0EZ0cFglPUcHn3JCmi4UB+Re8i7ATHKytJONSsguB7WCD5y9IPc1sOVL/WsgEh0CwPfW3T3HKKdAa2HUgAXdsY3AGh/5FXekyYbvuXPsS59M+a8H0lSQnqLHxFGTcR4WyrPvcXwODMjZ3+IN54iH4H9ocR7C7vXYzfTXHXpqAkJlzA+v5CZ+kgTyj2eGf079jJVNdQG0aL5nPbgHP1D6CNNKPt05vAqy1Sle/rWwtI+1jR0gstsG+0pI0loyu3r+8oSOcCav1/DGoa96WK3eRAw7uc7SUNliRx6vcA9ip9kd7eoL+cwSUPtLo7tlL2or/wDYOysftCjvyG3G2A7qSOHf0khRtg3obpb5rEFIRQ5qZrCjMMngnCpXwL2vvIPgXGhyEnDmMDD7r4D8pVktvQhpYoc9kZ/StgFz5wCOTnewww1WhSvcuxPnLsYZpt3xp3DnSFaJ8KR455xn0TeXQypR9xsCUcOf55ylP8cnUo0clJe+7Lk12tMDS/EIifV1T0lD2EkscjxPJEr0BPAfMo1joQixzVEEc1eTje9eboUiBxRxNq5arpAfgWQkNGzx/+xyhZA+f06wjytXIyT/NqM57WuLhf6zJMJClDa0X0KjdbnR47XuAo+EWqzl8hGq5f/r7BxdXLV4kaO544vpu8yy76hN5Mp/+6zuLiR4463Y+/k1T3gM5rOgZpKbY6YkeN54yvicxA395g7pVJtdixcPPmtVUbAUFrqnzt0vW1aTq9fgDWQrdG/ZOR4jfEx4830uv12zbFq5kQ1y3Ha/UJOT0yHWOSggLnmvo315qC/1/Z1sNUfFHZyEnrjM/ry+W7jRwLP1/D4atxCGo9v3QetJtfOG6TDYnwAkJaWlpaWlpaWlpaWlpaWlpaWlpaWlpaWlpZWev0P68xIOP76bL4AAAAASUVORK5CYII=;" vertex="1" parent="1">
                    <mxGeometry x="1130" y="115.78" width="20" height="20" as="geometry"/>
                </mxCell>
                <mxCell id="72" value="" style="shape=image;verticalLabelPosition=bottom;labelBackgroundColor=#ffffff;verticalAlign=top;aspect=fixed;imageAspect=0;image=data:image/png,iVBORw0KGgoAAAANSUhEUgAAAOEAAADhCAMAAAAJbSJIAAABIFBMVEX////8yj91dXX/wkr2ggz0vWJxcXFubm72gAj/zD1ra2v8yTxvb2/9zD//xUz8yDj/wUT1wmX5+flwcnb/vzv//O72hxb81lf8z06Pj4//vz5rb3hxc3by8vJ/f3/zuFP3jBzX19fl5eWtra29vb3Nzc3/1Yr0u1z/7c//3qf/++ugoKC0tLScnJz/+/P/8dr/5rz/z3j/yWX/6cP2y4f65cf94IP6niv944/92m39tD7+uUL4lSKrlmN8eXKgj2fOrFXwwkWHh4fzsiH10p//2Zn/x1v1xXb52qv+77f/0Hv+9M71rU7/25z911/1pEL7pTH+773+5pz94YeIgG+QhW3atE+ikGbkuku9oVz6nSbEplnwtUrvrS2Zg2PxvGsrqss4AAAKlElEQVR4nO2dfVfbNhjFcRLs2I6TFEK7BBIKJIXykjAK7VbWF0hb2Eu3bmu7rR3j+3+LyXYSW9IjxbKRZTi6/7Sn0KDfufLVo0ciWVjQ0tLS0tLS0tLS0tLS0tLS0tLS0tLS0tLS0iqKDt8+Hqoeg0wNy61Op7WjehgSddQsI3VUD0OeVlrlgPCx6oFI005IWO7c2UfxsjMhfKt6JLL0qBkSllt31cSjKWHzkeqhSFJ5ptau6rFI0bA1I2x+q3owUjRqxUwcqR6NDB12IsLmkerRyND7GGH5TtZu3zZjhOV3qocjQWVMrSeqx3PjikVpoLrqAd24dgnC1qHqEd20nhCE5abqEd20HncIwju3i3rUJAjvXAF+RALeuV0UZeFdM5FcLIKsuVO7qB2AEN5FnRzezrL8kIzSwER6FzVaX99ev1AwwMx6CzyHwC5quL6ItH2sZIzZdAQSUruot9s+4eL6LZyoEF+Z2kWFFiITb988HUKPoS98F3UcWohMPFE00NQaQVEamBjfRe1OLPSlbKgp9YTlIbaLmll4C02k6u7IxGgXNYpZeOtM/AmM0kDRLupiOwa4fcuaAO+YgNEuCrdwcXveaw4LVdaygiZAnIwUsxAR8psAK0897+lKDkNPJrKFgROGu6gd3MI5Ju4+aLhu40FhbATr7ihsgnFeL5KEl+wXRIAGUuPHvAjmiR2lQdb4u6gT0kK0YjAdmgAajac5QnBFtzBwE9EuiuJDJr5hvNwU0HB/zRWDI7jujkz8aeEJbSHTxBmg4Xo5gzDF5fNNHAF8LBNXZoCGYRfkJBJqYWCqPwcJQRPjgEbj5/xpIDHr7pmqv8Am0lthDLAwYQq2MOIWPqvevwebSM5CHNBo/KkEiNL7OYTlaiWhiQRgYcKUU3cHFn5BhPcZTyLWzyABCxOmdb6Dp9VKpVL9DTYx3s+gAAsTpvygqf8QEFbmmggAFiRMuXX3xMIEJkKABQlT6ugQsNAXw8RJOw4ENBrfqWULxa+7T6eADBMXr4MXgQGNxveK4QJx6+76wylhpcow0W9KMQALEqb00WFMz2eAyER42b9mA6IwLcI+n/sURhZyTBwyAQsRpry6ux6zEBE+g0289ysTsBBhymth1O/HCSvVbRCQ7SAi/EM1H7fuxi1EhD8AJt574LIBCxGm8NHhxMIKLsBEPqDhfqOaj7yyhwF+qJKElIlzAAsRphwLK5Sq64KARQhTZtDQFiLCh/fEAI3G76oBOS0M2sIKvhVOAFiAMGUeHUIW4iYmASxAmLLrbggwbmIiwAKEKauFUX/GIJw2pZIBojBVfTzDrLthwJmJSQGNhuqrKSwLvzAJAxMTAyoP0xVGlJ6yAMOtcHJA5WHKqLuj3gVkogig8iO2SzhKORb6JgoAGu4DtYRw3c2zEC2JIoCG4akNU/jo8PkNAqoOU9jCh5ynUBRQce0NtzA4FooDKg5TsO7mWIgABflUhynUwiB7F9kcVB2mUN1N9S6yAaLKVCUhUHezLUwJaDRUHrEBV/aYFqYFVBumdNDAG98sgEq7wsDRIdB+ygio9L4CXXezLEyzTMwIFd5XAKL0xh1Ue8RGHR0yLMzioKH0vgLdwmABpnfQUBqmlIVg+ymjgyrDlK67YcBvMjmo8r4CWXeDFmadoobKy19k3Q31LpCDGflUhinRwoB6F9mnqC9lYUocHQIWpnXQtX254R+2rSxM6/MsTOWgh5D+/vriv48vS2ullx8/vXrx+kxVmLbmWFi9L+6gbZ+9flVaXV5eWyv5WltbW15dLe1tqADEo5TuXSBAUQdt+/Or1dWQDZPpmHubuRPiV/aoja+4g7b9+iWEN4U8z9tIrO6mLBR20PP5WHih8mbE6m7SQmFA++wT27+Isd3NkTDewiBuP4lPUfvr8nw+f65ag/wIYxZSt58EAV37rzkTNGbjQV6A8bqbvMAmCGiffVxOClgq1c6X8iGMtTCIja84YCnRDJ3N1FI+D2Os7sY7iOKAa0KAPmMuiFHdjVsoDpgsY3DlgRiru7M46BkvUwCapRwI4adQfJn4JBAyMcS2dMBYlGYCfJF4mcDl7MsmnNXd8d6FOODfKQERouxKPLqylwHQsNM8hBP1JBNO6+6YhQjQEwT8h2eh07NMzpctyfN0enR4Wk3voGdwUsbpDRa6ew6H0ZFb20zq7qh3Ie4gihkmoVUKK2weY21LKiFpYYqWhWew5qhV6s9+UHeLyWjJXPcnR4czC1P1ZP6BLYzzcRlrMp/ESd19mgHQ8GA+q0/9NBajKZEwvLI3tTAVoP0ZmKSWSfP5WtqyavR3OxK7GmEL43k1bcj4hH9Rk7Rm7TPzEflIMZp78giDK3uT9lM6QMOmJx2bz9fSFj1V5RG2IgvTAtIFm4X/jH6pTVRmFKG80i2ou0MLUwL6vScu4QBlqulgjEsUIZBKNyS/7g7bT2kBDfsVVZLGCAclJ5y4cUaaUN6D6LcwgvZTakBUdFMP1Yxw0HMiiIiRJpRXfr/vhBamBzSAgsYi+EyCESCUVpuiuttvP2UA9M4YhBGfcxD9NWCECGUVbu+C3kUWB6H1HhFuxPg2MVz/zAIglBWmHf8CWxZAuKLZOMf4fE0jx/dxg/4fsqqa3RayMBOgYb+GajZsUk4U+WgB/0PSMQaqu7M5yCAE+DDG/AgfNz9kBGQS0nxcRlmEj5rVSjZA+Dn0D0EZ0cFglPUcHn3JCmi4UB+Re8i7ATHKytJONSsguB7WCD5y9IPc1sOVL/WsgEh0CwPfW3T3HKKdAa2HUgAXdsY3AGh/5FXekyYbvuXPsS59M+a8H0lSQnqLHxFGTcR4WyrPvcXwODMjZ3+IN54iH4H9ocR7C7vXYzfTXHXpqAkJlzA+v5CZ+kgTyj2eGf079jJVNdQG0aL5nPbgHP1D6CNNKPt05vAqy1Sle/rWwtI+1jR0gstsG+0pI0loyu3r+8oSOcCav1/DGoa96WK3eRAw7uc7SUNliRx6vcA9ip9kd7eoL+cwSUPtLo7tlL2or/wDYOysftCjvyG3G2A7qSOHf0khRtg3obpb5rEFIRQ5qZrCjMMngnCpXwL2vvIPgXGhyEnDmMDD7r4D8pVktvQhpYoc9kZ/StgFz5wCOTnewww1WhSvcuxPnLsYZpt3xp3DnSFaJ8KR455xn0TeXQypR9xsCUcOf55ylP8cnUo0clJe+7Lk12tMDS/EIifV1T0lD2EkscjxPJEr0BPAfMo1joQixzVEEc1eTje9eboUiBxRxNq5arpAfgWQkNGzx/+xyhZA+f06wjytXIyT/NqM57WuLhf6zJMJClDa0X0KjdbnR47XuAo+EWqzl8hGq5f/r7BxdXLV4kaO544vpu8yy76hN5Mp/+6zuLiR4463Y+/k1T3gM5rOgZpKbY6YkeN54yvicxA395g7pVJtdixcPPmtVUbAUFrqnzt0vW1aTq9fgDWQrdG/ZOR4jfEx4830uv12zbFq5kQ1y3Ha/UJOT0yHWOSggLnmvo315qC/1/Z1sNUfFHZyEnrjM/ry+W7jRwLP1/D4atxCGo9v3QetJtfOG6TDYnwAkJaWlpaWlpaWlpaWlpaWlpaWlpaWlpaWlpZWev0P68xIOP76bL4AAAAASUVORK5CYII=;" vertex="1" parent="1">
                    <mxGeometry x="1130" y="197.89" width="20" height="20" as="geometry"/>
                </mxCell>
                <mxCell id="73" value="" style="shape=image;verticalLabelPosition=bottom;labelBackgroundColor=#ffffff;verticalAlign=top;aspect=fixed;imageAspect=0;image=data:image/png,iVBORw0KGgoAAAANSUhEUgAAAOEAAADhCAMAAAAJbSJIAAABIFBMVEX////8yj91dXX/wkr2ggz0vWJxcXFubm72gAj/zD1ra2v8yTxvb2/9zD//xUz8yDj/wUT1wmX5+flwcnb/vzv//O72hxb81lf8z06Pj4//vz5rb3hxc3by8vJ/f3/zuFP3jBzX19fl5eWtra29vb3Nzc3/1Yr0u1z/7c//3qf/++ugoKC0tLScnJz/+/P/8dr/5rz/z3j/yWX/6cP2y4f65cf94IP6niv944/92m39tD7+uUL4lSKrlmN8eXKgj2fOrFXwwkWHh4fzsiH10p//2Zn/x1v1xXb52qv+77f/0Hv+9M71rU7/25z911/1pEL7pTH+773+5pz94YeIgG+QhW3atE+ikGbkuku9oVz6nSbEplnwtUrvrS2Zg2PxvGsrqss4AAAKlElEQVR4nO2dfVfbNhjFcRLs2I6TFEK7BBIKJIXykjAK7VbWF0hb2Eu3bmu7rR3j+3+LyXYSW9IjxbKRZTi6/7Sn0KDfufLVo0ciWVjQ0tLS0tLS0tLS0tLS0tLS0tLS0tLS0tLS0iqKDt8+Hqoeg0wNy61Op7WjehgSddQsI3VUD0OeVlrlgPCx6oFI005IWO7c2UfxsjMhfKt6JLL0qBkSllt31cSjKWHzkeqhSFJ5ptau6rFI0bA1I2x+q3owUjRqxUwcqR6NDB12IsLmkerRyND7GGH5TtZu3zZjhOV3qocjQWVMrSeqx3PjikVpoLrqAd24dgnC1qHqEd20nhCE5abqEd20HncIwju3i3rUJAjvXAF+RALeuV0UZeFdM5FcLIKsuVO7qB2AEN5FnRzezrL8kIzSwER6FzVaX99ev1AwwMx6CzyHwC5quL6ItH2sZIzZdAQSUruot9s+4eL6LZyoEF+Z2kWFFiITb988HUKPoS98F3UcWohMPFE00NQaQVEamBjfRe1OLPSlbKgp9YTlIbaLmll4C02k6u7IxGgXNYpZeOtM/AmM0kDRLupiOwa4fcuaAO+YgNEuCrdwcXveaw4LVdaygiZAnIwUsxAR8psAK0897+lKDkNPJrKFgROGu6gd3MI5Ju4+aLhu40FhbATr7ihsgnFeL5KEl+wXRIAGUuPHvAjmiR2lQdb4u6gT0kK0YjAdmgAajac5QnBFtzBwE9EuiuJDJr5hvNwU0HB/zRWDI7jujkz8aeEJbSHTxBmg4Xo5gzDF5fNNHAF8LBNXZoCGYRfkJBJqYWCqPwcJQRPjgEbj5/xpIDHr7pmqv8Am0lthDLAwYQq2MOIWPqvevwebSM5CHNBo/KkEiNL7OYTlaiWhiQRgYcKUU3cHFn5BhPcZTyLWzyABCxOmdb6Dp9VKpVL9DTYx3s+gAAsTpvygqf8QEFbmmggAFiRMuXX3xMIEJkKABQlT6ugQsNAXw8RJOw4ENBrfqWULxa+7T6eADBMXr4MXgQGNxveK4QJx6+76wylhpcow0W9KMQALEqb00WFMz2eAyER42b9mA6IwLcI+n/sURhZyTBwyAQsRpry6ux6zEBE+g0289ysTsBBhymth1O/HCSvVbRCQ7SAi/EM1H7fuxi1EhD8AJt574LIBCxGm8NHhxMIKLsBEPqDhfqOaj7yyhwF+qJKElIlzAAsRphwLK5Sq64KARQhTZtDQFiLCh/fEAI3G76oBOS0M2sIKvhVOAFiAMGUeHUIW4iYmASxAmLLrbggwbmIiwAKEKauFUX/GIJw2pZIBojBVfTzDrLthwJmJSQGNhuqrKSwLvzAJAxMTAyoP0xVGlJ6yAMOtcHJA5WHKqLuj3gVkogig8iO2SzhKORb6JgoAGu4DtYRw3c2zEC2JIoCG4akNU/jo8PkNAqoOU9jCh5ynUBRQce0NtzA4FooDKg5TsO7mWIgABflUhynUwiB7F9kcVB2mUN1N9S6yAaLKVCUhUHezLUwJaDRUHrEBV/aYFqYFVBumdNDAG98sgEq7wsDRIdB+ygio9L4CXXezLEyzTMwIFd5XAKL0xh1Ue8RGHR0yLMzioKH0vgLdwmABpnfQUBqmlIVg+ymjgyrDlK67YcBvMjmo8r4CWXeDFmadoobKy19k3Q31LpCDGflUhinRwoB6F9mnqC9lYUocHQIWpnXQtX254R+2rSxM6/MsTOWgh5D+/vriv48vS2ullx8/vXrx+kxVmLbmWFi9L+6gbZ+9flVaXV5eWyv5WltbW15dLe1tqADEo5TuXSBAUQdt+/Or1dWQDZPpmHubuRPiV/aoja+4g7b9+iWEN4U8z9tIrO6mLBR20PP5WHih8mbE6m7SQmFA++wT27+Isd3NkTDewiBuP4lPUfvr8nw+f65ag/wIYxZSt58EAV37rzkTNGbjQV6A8bqbvMAmCGiffVxOClgq1c6X8iGMtTCIja84YCnRDJ3N1FI+D2Os7sY7iOKAa0KAPmMuiFHdjVsoDpgsY3DlgRiru7M46BkvUwCapRwI4adQfJn4JBAyMcS2dMBYlGYCfJF4mcDl7MsmnNXd8d6FOODfKQERouxKPLqylwHQsNM8hBP1JBNO6+6YhQjQEwT8h2eh07NMzpctyfN0enR4Wk3voGdwUsbpDRa6ew6H0ZFb20zq7qh3Ie4gihkmoVUKK2weY21LKiFpYYqWhWew5qhV6s9+UHeLyWjJXPcnR4czC1P1ZP6BLYzzcRlrMp/ESd19mgHQ8GA+q0/9NBajKZEwvLI3tTAVoP0ZmKSWSfP5WtqyavR3OxK7GmEL43k1bcj4hH9Rk7Rm7TPzEflIMZp78giDK3uT9lM6QMOmJx2bz9fSFj1V5RG2IgvTAtIFm4X/jH6pTVRmFKG80i2ou0MLUwL6vScu4QBlqulgjEsUIZBKNyS/7g7bT2kBDfsVVZLGCAclJ5y4cUaaUN6D6LcwgvZTakBUdFMP1Yxw0HMiiIiRJpRXfr/vhBamBzSAgsYi+EyCESCUVpuiuttvP2UA9M4YhBGfcxD9NWCECGUVbu+C3kUWB6H1HhFuxPg2MVz/zAIglBWmHf8CWxZAuKLZOMf4fE0jx/dxg/4fsqqa3RayMBOgYb+GajZsUk4U+WgB/0PSMQaqu7M5yCAE+DDG/AgfNz9kBGQS0nxcRlmEj5rVSjZA+Dn0D0EZ0cFglPUcHn3JCmi4UB+Re8i7ATHKytJONSsguB7WCD5y9IPc1sOVL/WsgEh0CwPfW3T3HKKdAa2HUgAXdsY3AGh/5FXekyYbvuXPsS59M+a8H0lSQnqLHxFGTcR4WyrPvcXwODMjZ3+IN54iH4H9ocR7C7vXYzfTXHXpqAkJlzA+v5CZ+kgTyj2eGf079jJVNdQG0aL5nPbgHP1D6CNNKPt05vAqy1Sle/rWwtI+1jR0gstsG+0pI0loyu3r+8oSOcCav1/DGoa96WK3eRAw7uc7SUNliRx6vcA9ip9kd7eoL+cwSUPtLo7tlL2or/wDYOysftCjvyG3G2A7qSOHf0khRtg3obpb5rEFIRQ5qZrCjMMngnCpXwL2vvIPgXGhyEnDmMDD7r4D8pVktvQhpYoc9kZ/StgFz5wCOTnewww1WhSvcuxPnLsYZpt3xp3DnSFaJ8KR455xn0TeXQypR9xsCUcOf55ylP8cnUo0clJe+7Lk12tMDS/EIifV1T0lD2EkscjxPJEr0BPAfMo1joQixzVEEc1eTje9eboUiBxRxNq5arpAfgWQkNGzx/+xyhZA+f06wjytXIyT/NqM57WuLhf6zJMJClDa0X0KjdbnR47XuAo+EWqzl8hGq5f/r7BxdXLV4kaO544vpu8yy76hN5Mp/+6zuLiR4463Y+/k1T3gM5rOgZpKbY6YkeN54yvicxA395g7pVJtdixcPPmtVUbAUFrqnzt0vW1aTq9fgDWQrdG/ZOR4jfEx4830uv12zbFq5kQ1y3Ha/UJOT0yHWOSggLnmvo315qC/1/Z1sNUfFHZyEnrjM/ry+W7jRwLP1/D4atxCGo9v3QetJtfOG6TDYnwAkJaWlpaWlpaWlpaWlpaWlpaWlpaWlpaWlpZWev0P68xIOP76bL4AAAAASUVORK5CYII=;" vertex="1" parent="1">
                    <mxGeometry x="1130" y="277.89" width="20" height="20" as="geometry"/>
                </mxCell>
                <mxCell id="74" value="" style="shape=image;verticalLabelPosition=bottom;labelBackgroundColor=#ffffff;verticalAlign=top;aspect=fixed;imageAspect=0;image=data:image/png,iVBORw0KGgoAAAANSUhEUgAAAOEAAADhCAMAAAAJbSJIAAABIFBMVEX////8yj91dXX/wkr2ggz0vWJxcXFubm72gAj/zD1ra2v8yTxvb2/9zD//xUz8yDj/wUT1wmX5+flwcnb/vzv//O72hxb81lf8z06Pj4//vz5rb3hxc3by8vJ/f3/zuFP3jBzX19fl5eWtra29vb3Nzc3/1Yr0u1z/7c//3qf/++ugoKC0tLScnJz/+/P/8dr/5rz/z3j/yWX/6cP2y4f65cf94IP6niv944/92m39tD7+uUL4lSKrlmN8eXKgj2fOrFXwwkWHh4fzsiH10p//2Zn/x1v1xXb52qv+77f/0Hv+9M71rU7/25z911/1pEL7pTH+773+5pz94YeIgG+QhW3atE+ikGbkuku9oVz6nSbEplnwtUrvrS2Zg2PxvGsrqss4AAAKlElEQVR4nO2dfVfbNhjFcRLs2I6TFEK7BBIKJIXykjAK7VbWF0hb2Eu3bmu7rR3j+3+LyXYSW9IjxbKRZTi6/7Sn0KDfufLVo0ciWVjQ0tLS0tLS0tLS0tLS0tLS0tLS0tLS0tLS0iqKDt8+Hqoeg0wNy61Op7WjehgSddQsI3VUD0OeVlrlgPCx6oFI005IWO7c2UfxsjMhfKt6JLL0qBkSllt31cSjKWHzkeqhSFJ5ptau6rFI0bA1I2x+q3owUjRqxUwcqR6NDB12IsLmkerRyND7GGH5TtZu3zZjhOV3qocjQWVMrSeqx3PjikVpoLrqAd24dgnC1qHqEd20nhCE5abqEd20HncIwju3i3rUJAjvXAF+RALeuV0UZeFdM5FcLIKsuVO7qB2AEN5FnRzezrL8kIzSwER6FzVaX99ev1AwwMx6CzyHwC5quL6ItH2sZIzZdAQSUruot9s+4eL6LZyoEF+Z2kWFFiITb988HUKPoS98F3UcWohMPFE00NQaQVEamBjfRe1OLPSlbKgp9YTlIbaLmll4C02k6u7IxGgXNYpZeOtM/AmM0kDRLupiOwa4fcuaAO+YgNEuCrdwcXveaw4LVdaygiZAnIwUsxAR8psAK0897+lKDkNPJrKFgROGu6gd3MI5Ju4+aLhu40FhbATr7ihsgnFeL5KEl+wXRIAGUuPHvAjmiR2lQdb4u6gT0kK0YjAdmgAajac5QnBFtzBwE9EuiuJDJr5hvNwU0HB/zRWDI7jujkz8aeEJbSHTxBmg4Xo5gzDF5fNNHAF8LBNXZoCGYRfkJBJqYWCqPwcJQRPjgEbj5/xpIDHr7pmqv8Am0lthDLAwYQq2MOIWPqvevwebSM5CHNBo/KkEiNL7OYTlaiWhiQRgYcKUU3cHFn5BhPcZTyLWzyABCxOmdb6Dp9VKpVL9DTYx3s+gAAsTpvygqf8QEFbmmggAFiRMuXX3xMIEJkKABQlT6ugQsNAXw8RJOw4ENBrfqWULxa+7T6eADBMXr4MXgQGNxveK4QJx6+76wylhpcow0W9KMQALEqb00WFMz2eAyER42b9mA6IwLcI+n/sURhZyTBwyAQsRpry6ux6zEBE+g0289ysTsBBhymth1O/HCSvVbRCQ7SAi/EM1H7fuxi1EhD8AJt574LIBCxGm8NHhxMIKLsBEPqDhfqOaj7yyhwF+qJKElIlzAAsRphwLK5Sq64KARQhTZtDQFiLCh/fEAI3G76oBOS0M2sIKvhVOAFiAMGUeHUIW4iYmASxAmLLrbggwbmIiwAKEKauFUX/GIJw2pZIBojBVfTzDrLthwJmJSQGNhuqrKSwLvzAJAxMTAyoP0xVGlJ6yAMOtcHJA5WHKqLuj3gVkogig8iO2SzhKORb6JgoAGu4DtYRw3c2zEC2JIoCG4akNU/jo8PkNAqoOU9jCh5ynUBRQce0NtzA4FooDKg5TsO7mWIgABflUhynUwiB7F9kcVB2mUN1N9S6yAaLKVCUhUHezLUwJaDRUHrEBV/aYFqYFVBumdNDAG98sgEq7wsDRIdB+ygio9L4CXXezLEyzTMwIFd5XAKL0xh1Ue8RGHR0yLMzioKH0vgLdwmABpnfQUBqmlIVg+ymjgyrDlK67YcBvMjmo8r4CWXeDFmadoobKy19k3Q31LpCDGflUhinRwoB6F9mnqC9lYUocHQIWpnXQtX254R+2rSxM6/MsTOWgh5D+/vriv48vS2ullx8/vXrx+kxVmLbmWFi9L+6gbZ+9flVaXV5eWyv5WltbW15dLe1tqADEo5TuXSBAUQdt+/Or1dWQDZPpmHubuRPiV/aoja+4g7b9+iWEN4U8z9tIrO6mLBR20PP5WHih8mbE6m7SQmFA++wT27+Isd3NkTDewiBuP4lPUfvr8nw+f65ag/wIYxZSt58EAV37rzkTNGbjQV6A8bqbvMAmCGiffVxOClgq1c6X8iGMtTCIja84YCnRDJ3N1FI+D2Os7sY7iOKAa0KAPmMuiFHdjVsoDpgsY3DlgRiru7M46BkvUwCapRwI4adQfJn4JBAyMcS2dMBYlGYCfJF4mcDl7MsmnNXd8d6FOODfKQERouxKPLqylwHQsNM8hBP1JBNO6+6YhQjQEwT8h2eh07NMzpctyfN0enR4Wk3voGdwUsbpDRa6ew6H0ZFb20zq7qh3Ie4gihkmoVUKK2weY21LKiFpYYqWhWew5qhV6s9+UHeLyWjJXPcnR4czC1P1ZP6BLYzzcRlrMp/ESd19mgHQ8GA+q0/9NBajKZEwvLI3tTAVoP0ZmKSWSfP5WtqyavR3OxK7GmEL43k1bcj4hH9Rk7Rm7TPzEflIMZp78giDK3uT9lM6QMOmJx2bz9fSFj1V5RG2IgvTAtIFm4X/jH6pTVRmFKG80i2ou0MLUwL6vScu4QBlqulgjEsUIZBKNyS/7g7bT2kBDfsVVZLGCAclJ5y4cUaaUN6D6LcwgvZTakBUdFMP1Yxw0HMiiIiRJpRXfr/vhBamBzSAgsYi+EyCESCUVpuiuttvP2UA9M4YhBGfcxD9NWCECGUVbu+C3kUWB6H1HhFuxPg2MVz/zAIglBWmHf8CWxZAuKLZOMf4fE0jx/dxg/4fsqqa3RayMBOgYb+GajZsUk4U+WgB/0PSMQaqu7M5yCAE+DDG/AgfNz9kBGQS0nxcRlmEj5rVSjZA+Dn0D0EZ0cFglPUcHn3JCmi4UB+Re8i7ATHKytJONSsguB7WCD5y9IPc1sOVL/WsgEh0CwPfW3T3HKKdAa2HUgAXdsY3AGh/5FXekyYbvuXPsS59M+a8H0lSQnqLHxFGTcR4WyrPvcXwODMjZ3+IN54iH4H9ocR7C7vXYzfTXHXpqAkJlzA+v5CZ+kgTyj2eGf079jJVNdQG0aL5nPbgHP1D6CNNKPt05vAqy1Sle/rWwtI+1jR0gstsG+0pI0loyu3r+8oSOcCav1/DGoa96WK3eRAw7uc7SUNliRx6vcA9ip9kd7eoL+cwSUPtLo7tlL2or/wDYOysftCjvyG3G2A7qSOHf0khRtg3obpb5rEFIRQ5qZrCjMMngnCpXwL2vvIPgXGhyEnDmMDD7r4D8pVktvQhpYoc9kZ/StgFz5wCOTnewww1WhSvcuxPnLsYZpt3xp3DnSFaJ8KR455xn0TeXQypR9xsCUcOf55ylP8cnUo0clJe+7Lk12tMDS/EIifV1T0lD2EkscjxPJEr0BPAfMo1joQixzVEEc1eTje9eboUiBxRxNq5arpAfgWQkNGzx/+xyhZA+f06wjytXIyT/NqM57WuLhf6zJMJClDa0X0KjdbnR47XuAo+EWqzl8hGq5f/r7BxdXLV4kaO544vpu8yy76hN5Mp/+6zuLiR4463Y+/k1T3gM5rOgZpKbY6YkeN54yvicxA395g7pVJtdixcPPmtVUbAUFrqnzt0vW1aTq9fgDWQrdG/ZOR4jfEx4830uv12zbFq5kQ1y3Ha/UJOT0yHWOSggLnmvo315qC/1/Z1sNUfFHZyEnrjM/ry+W7jRwLP1/D4atxCGo9v3QetJtfOG6TDYnwAkJaWlpaWlpaWlpaWlpaWlpaWlpaWlpaWlpZWev0P68xIOP76bL4AAAAASUVORK5CYII=;" vertex="1" parent="1">
                    <mxGeometry x="1130" y="370" width="20" height="20" as="geometry"/>
                </mxCell>
            </root>
        </mxGraphModel>
    </diagram>
</mxfile>